<svg width="49" height="49" viewBox="0 0 49 49" fill="none" xmlns="http://www.w3.org/2000/svg">
<rect x="0.500132" y="0.5" width="47.0473" height="47.0473" rx="11.5" transform="matrix(1 0 0.000264314 1 -0.000132157 2.98023e-08)" fill="url(#paint0_linear_1643_6639)"/>
<rect x="0.500132" y="0.5" width="47.0473" height="47.0473" rx="11.5" transform="matrix(1 0 0.000264314 1 -0.000132157 2.98023e-08)" stroke="#F5F4F5" style="stroke:#F5F4F5;stroke:color(display-p3 0.9600 0.9575 0.9625);stroke-opacity:1;"/>
<g clip-path="url(#clip0_1643_6639)">
<path d="M35.1164 11.0107H12.1601C11.5065 11.0107 10.9766 11.5407 10.9766 12.1943L10.9766 31.1006C10.9766 31.7543 11.5065 32.2842 12.1601 32.2842H35.1164C35.7701 32.2842 36.3 31.7543 36.3 31.1006L36.3 12.1943C36.3 11.5407 35.7701 11.0107 35.1164 11.0107Z" fill="#56653E" style="fill:#56653E;fill:color(display-p3 0.3371 0.3942 0.2420);fill-opacity:1;"/>
<path d="M20.1223 20.0663C21.0938 20.0663 21.8814 19.2746 21.8814 18.2979C21.8814 17.3213 21.0938 16.5295 20.1223 16.5295C19.1508 16.5295 18.3633 17.3213 18.3633 18.2979C18.3633 19.2746 19.1508 20.0663 20.1223 20.0663Z" fill="#9AB175" style="fill:#9AB175;fill:color(display-p3 0.6050 0.6952 0.4575);fill-opacity:1;"/>
<path d="M24.9973 23.3808C25.9688 23.3808 26.7564 22.589 26.7564 21.6124C26.7564 20.6357 25.9688 19.844 24.9973 19.844C24.0258 19.844 23.2383 20.6357 23.2383 21.6124C23.2383 22.589 24.0258 23.3808 24.9973 23.3808Z" fill="#9AB175" style="fill:#9AB175;fill:color(display-p3 0.6050 0.6952 0.4575);fill-opacity:1;"/>
<path d="M29.72 17.1005C30.6915 17.1005 31.479 16.3087 31.479 15.3321C31.479 14.3555 30.6915 13.5637 29.72 13.5637C28.7485 13.5637 27.9609 14.3555 27.9609 15.3321C27.9609 16.3087 28.7485 17.1005 29.72 17.1005Z" fill="#9AB175" style="fill:#9AB175;fill:color(display-p3 0.6050 0.6952 0.4575);fill-opacity:1;"/>
<path d="M15.5559 26.5707C16.5274 26.5707 17.315 25.779 17.315 24.8023C17.315 23.8257 16.5274 23.0339 15.5559 23.0339C14.5844 23.0339 13.7969 23.8257 13.7969 24.8023C13.7969 25.779 14.5844 26.5707 15.5559 26.5707Z" fill="#9AB175" style="fill:#9AB175;fill:color(display-p3 0.6050 0.6952 0.4575);fill-opacity:1;"/>
<path d="M16.1918 25.2487L14.918 24.3559L19.9276 17.2264L24.8237 20.5517L29.1008 14.8655L30.3435 15.8002L25.1767 22.6715L20.3195 19.3727L16.1918 25.2487Z" fill="#9AB175" style="fill:#9AB175;fill:color(display-p3 0.6050 0.6952 0.4575);fill-opacity:1;"/>
<path d="M20.758 36.5929C20.2766 36.5925 19.815 36.4012 19.4745 36.061C19.1339 35.7207 18.9422 35.2593 18.9414 34.7779C19.2525 28.7293 22.8903 24.8831 28.2328 24.8831C33.5752 24.8831 37.238 28.7293 37.5242 34.6815C37.5361 34.9202 37.5009 35.159 37.4205 35.3842C37.3401 35.6094 37.2161 35.8165 37.0556 35.9937C36.8952 36.1709 36.7013 36.3148 36.4852 36.4171C36.2691 36.5194 36.035 36.5781 35.7962 36.5898H20.7564L20.758 36.5929Z" fill="#9AB175" style="fill:#9AB175;fill:color(display-p3 0.6050 0.6952 0.4575);fill-opacity:1;"/>
<path d="M28.2323 25.3296C33.5623 25.3296 36.8176 29.2941 37.0773 34.7065C37.0863 34.8863 37.0598 35.066 36.9993 35.2355C36.9389 35.405 36.8456 35.561 36.7249 35.6944C36.6041 35.8279 36.4583 35.9362 36.2956 36.0133C36.133 36.0904 35.9568 36.1347 35.7771 36.1436H20.7575C20.5776 36.1438 20.3995 36.1086 20.2333 36.0399C20.067 35.9712 19.916 35.8704 19.7887 35.7433C19.6614 35.6162 19.5605 35.4652 19.4916 35.2991C19.4227 35.1329 19.3873 34.9548 19.3873 34.775C19.3873 34.7516 19.3873 34.7283 19.3873 34.7034C19.6626 29.2956 22.9116 25.3296 28.2323 25.3296ZM28.2323 24.4353C22.6332 24.4353 18.8103 28.4495 18.4961 34.6599L18.4961 34.7781C18.4977 35.3779 18.7369 35.9526 19.1614 36.3764C19.5858 36.8002 20.1608 37.0387 20.7606 37.0395H35.732H35.8237C36.121 37.0245 36.4125 36.9512 36.6814 36.8236C36.9503 36.6959 37.1915 36.5166 37.3911 36.2958C37.5907 36.0749 37.7449 35.8169 37.8447 35.5365C37.9446 35.2561 37.9882 34.9587 37.9731 34.6614C37.6792 28.546 33.7661 24.4353 28.2354 24.4353H28.2323Z" fill="#56653E" style="fill:#56653E;fill:color(display-p3 0.3371 0.3942 0.2420);fill-opacity:1;"/>
<path d="M32.3219 29.0964C31.2966 28.1736 29.993 27.6187 28.6172 27.5193L28.6172 30.3982C29.2471 30.4803 29.8423 30.7342 30.3374 31.1323L32.3219 29.0964Z" fill="#50E6FF" style="fill:#50E6FF;fill:color(display-p3 0.3137 0.9020 1.0000);fill-opacity:1;"/>
<path d="M24.043 29.0964L26.0275 31.1323C26.5226 30.7342 27.1178 30.4803 27.7477 30.3982L27.7477 27.5193C26.3719 27.6191 25.0685 28.1739 24.043 29.0964Z" fill="#50E6FF" style="fill:#50E6FF;fill:color(display-p3 0.3137 0.9020 1.0000);fill-opacity:1;"/>
<path d="M30.9727 31.7732C31.3643 32.2882 31.6123 32.8979 31.6912 33.54H34.4908C34.3972 32.1413 33.8593 30.809 32.9557 29.7373L30.9727 31.7732Z" fill="#32BEDD" style="fill:#32BEDD;fill:color(display-p3 0.1961 0.7451 0.8667);fill-opacity:1;"/>
<path d="M25.4009 31.7732L23.4163 29.7373C22.5125 30.8088 21.9751 32.1413 21.8828 33.54H24.6824C24.7614 32.8979 25.0094 32.2882 25.4009 31.7732Z" fill="#50E6FF" style="fill:#50E6FF;fill:color(display-p3 0.3137 0.9020 1.0000);fill-opacity:1;"/>
<path d="M32.952 31.0467C32.9024 30.9387 32.8228 30.8471 32.7228 30.7829C32.6227 30.7187 32.5063 30.6845 32.3874 30.6843C32.2975 30.6844 32.2088 30.7046 32.1277 30.7434L27.8164 32.7653L28.3359 33.8945L32.6518 31.8726C32.801 31.8027 32.9164 31.6765 32.9727 31.5217C33.0289 31.3669 33.0215 31.1961 32.952 31.0467Z" fill="#E62323" style="fill:#E62323;fill:color(display-p3 0.9020 0.1373 0.1373);fill-opacity:1;"/>
<path d="M28.2299 34.7656C29.0493 34.7656 29.7136 34.1013 29.7136 33.2819C29.7136 32.4624 29.0493 31.7981 28.2299 31.7981C27.4104 31.7981 26.7461 32.4624 26.7461 33.2819C26.7461 34.1013 27.4104 34.7656 28.2299 34.7656Z" fill="#9AB175" style="fill:#9AB175;fill:color(display-p3 0.6050 0.6952 0.4575);fill-opacity:1;"/>
</g>
<defs>
<linearGradient id="paint0_linear_1643_6639" x1="24.0236" y1="0" x2="24.0236" y2="48.0473" gradientUnits="userSpaceOnUse">
<stop stop-color="#E7F2D4" style="stop-color:#E7F2D4;stop-color:color(display-p3 0.9041 0.9482 0.8327);stop-opacity:1;"/>
<stop offset="1" stop-color="#E7F2D4" style="stop-color:#E7F2D4;stop-color:color(display-p3 0.9041 0.9482 0.8327);stop-opacity:1;"/>
</linearGradient>
<clipPath id="clip0_1643_6639">
<rect width="27.9954" height="27.9954" fill="white" style="fill:white;fill-opacity:1;" transform="translate(9.97656 10.0098)"/>
</clipPath>
</defs>
</svg>
