<svg width="49" height="48" viewBox="0 0 49 48" fill="none" xmlns="http://www.w3.org/2000/svg">
<rect x="0.500132" y="0.5" width="47" height="47" rx="11.5" transform="matrix(1 0 0.000264314 1 -0.000132157 2.98023e-08)" fill="url(#paint0_linear_1643_6633)"/>
<rect x="0.500132" y="0.5" width="47" height="47" rx="11.5" transform="matrix(1 0 0.000264314 1 -0.000132157 2.98023e-08)" stroke="#F5F4F5" style="stroke:#F5F4F5;stroke:color(display-p3 0.9600 0.9575 0.9625);stroke-opacity:1;"/>
<path d="M32.6495 37.9844H15.3234C14.7932 37.9844 14.2847 37.7738 13.9098 37.3988C13.5348 37.0239 13.3242 36.5154 13.3242 35.9852L13.3242 11.9953C13.3242 11.465 13.5348 10.9566 13.9098 10.5816C14.2847 10.2067 14.7932 9.99609 15.3234 9.99609L27.9848 9.99609L34.6486 16.66L34.6486 35.9852C34.6486 36.5154 34.438 37.0239 34.0631 37.3988C33.6882 37.7738 33.1797 37.9844 32.6495 37.9844Z" fill="#56653E" style="fill:#56653E;fill:color(display-p3 0.3371 0.3942 0.2420);fill-opacity:1;"/>
<path d="M34.6486 16.66H27.9848L27.9848 9.99609L34.6486 16.66Z" fill="#9AB175" style="fill:#9AB175;fill:color(display-p3 0.6050 0.6952 0.4575);fill-opacity:1;"/>
<path d="M27.9848 22.6575H19.9881C19.8114 22.6575 19.6419 22.5873 19.5169 22.4623C19.3919 22.3373 19.3217 22.1678 19.3217 21.9911C19.3217 21.8143 19.3919 21.6448 19.5169 21.5199C19.6419 21.3949 19.8114 21.3247 19.9881 21.3247H27.9848C28.1615 21.3247 28.331 21.3949 28.456 21.5199C28.5809 21.6448 28.6511 21.8143 28.6511 21.9911C28.6511 22.1678 28.5809 22.3373 28.456 22.4623C28.331 22.5873 28.1615 22.6575 27.9848 22.6575ZM29.9839 26.6558H17.9889C17.8122 26.6558 17.6427 26.5856 17.5177 26.4606C17.3928 26.3356 17.3225 26.1661 17.3225 25.9894C17.3225 25.8127 17.3928 25.6432 17.5177 25.5182C17.6427 25.3932 17.8122 25.323 17.9889 25.323H29.9839C30.1607 25.323 30.3302 25.3932 30.4551 25.5182C30.5801 25.6432 30.6503 25.8127 30.6503 25.9894C30.6503 26.1661 30.5801 26.3356 30.4551 26.4606C30.3302 26.5856 30.1607 26.6558 29.9839 26.6558ZM29.9839 30.6541H17.9889C17.8122 30.6541 17.6427 30.5839 17.5177 30.4589C17.3928 30.334 17.3225 30.1645 17.3225 29.9877C17.3225 29.811 17.3928 29.6415 17.5177 29.5165C17.6427 29.3915 17.8122 29.3213 17.9889 29.3213H29.9839C30.1607 29.3213 30.3302 29.3915 30.4551 29.5165C30.5801 29.6415 30.6503 29.811 30.6503 29.9877C30.6503 30.1645 30.5801 30.334 30.4551 30.4589C30.3302 30.5839 30.1607 30.6541 29.9839 30.6541Z" fill="#E7F2D4" style="fill:#E7F2D4;fill:color(display-p3 0.9041 0.9482 0.8327);fill-opacity:1;"/>
<defs>
<linearGradient id="paint0_linear_1643_6633" x1="24" y1="0" x2="24" y2="48" gradientUnits="userSpaceOnUse">
<stop stop-color="#E7F2D4" style="stop-color:#E7F2D4;stop-color:color(display-p3 0.9041 0.9482 0.8327);stop-opacity:1;"/>
<stop offset="1" stop-color="#E7F2D4" style="stop-color:#E7F2D4;stop-color:color(display-p3 0.9041 0.9482 0.8327);stop-opacity:1;"/>
</linearGradient>
</defs>
</svg>
