<svg width="49" height="49" viewBox="0 0 49 49" fill="none" xmlns="http://www.w3.org/2000/svg">
<rect x="0.500132" y="0.5" width="47.0473" height="47.0473" rx="11.5" transform="matrix(1 0 0.000264314 1 -0.000132157 2.98023e-08)" fill="url(#paint0_linear_1643_6631)"/>
<rect x="0.500132" y="0.5" width="47.0473" height="47.0473" rx="11.5" transform="matrix(1 0 0.000264314 1 -0.000132157 2.98023e-08)" stroke="#F5F4F5" style="stroke:#F5F4F5;stroke:color(display-p3 0.9600 0.9575 0.9625);stroke-opacity:1;"/>
<g clip-path="url(#clip0_1643_6631)">
<path d="M19.048 26.1485L19.048 34.4626L23.5502 37.0605L23.5502 23.5472L11.8477 16.7906L11.8477 21.9887L19.048 26.1485ZM23.5502 10.0339L13.2159 16.0001L17.7181 18.5991L23.5502 15.2321L30.7494 19.3896L30.7494 27.7048L24.9184 31.0719L24.9184 36.2723L35.2516 30.3039L35.2516 16.7906L23.5502 10.0339Z" fill="#56653E" style="fill:#56653E;fill:color(display-p3 0.3371 0.3942 0.2420);fill-opacity:1;"/>
</g>
<defs>
<linearGradient id="paint0_linear_1643_6631" x1="24.0236" y1="0" x2="24.0236" y2="48.0473" gradientUnits="userSpaceOnUse">
<stop stop-color="#E7F2D4" style="stop-color:#E7F2D4;stop-color:color(display-p3 0.9041 0.9482 0.8327);stop-opacity:1;"/>
<stop offset="1" stop-color="#E7F2D4" style="stop-color:#E7F2D4;stop-color:color(display-p3 0.9041 0.9482 0.8327);stop-opacity:1;"/>
</linearGradient>
<clipPath id="clip0_1643_6631">
<rect width="27.0266" height="27.0266" fill="white" style="fill:white;fill-opacity:1;" transform="translate(10.0352 10.0339)"/>
</clipPath>
</defs>
</svg>
