<svg width="49" height="49" viewBox="0 0 49 49" fill="none" xmlns="http://www.w3.org/2000/svg">
<rect x="0.500132" y="0.5" width="47.0473" height="47.0473" rx="11.5" transform="matrix(1 0 0.000264314 1 -0.000132157 2.98023e-08)" fill="url(#paint0_linear_1643_6621)"/>
<rect x="0.500132" y="0.5" width="47.0473" height="47.0473" rx="11.5" transform="matrix(1 0 0.000264314 1 -0.000132157 2.98023e-08)" stroke="#F5F4F5" style="stroke:#F5F4F5;stroke:color(display-p3 0.9600 0.9575 0.9625);stroke-opacity:1;"/>
<path opacity="0.7" fill-rule="evenodd" clip-rule="evenodd" d="M22.1104 10.7043C20.37 10.9584 18.4743 11.6889 16.974 12.6835C15.8162 13.4511 14.5113 14.7222 13.655 15.9167C12.9473 16.9039 11.9952 18.8971 11.8328 19.7314C11.7968 19.9162 11.7061 20.0264 11.4199 20.2334C10.8968 20.6117 9.92489 21.6381 9.51601 22.2441C8.87 23.2016 8.44726 24.1423 8.16974 25.2404C7.91359 26.2537 7.86996 27.9856 8.07376 29.0507C8.76874 32.6833 11.4365 35.4087 15.1478 36.2776C15.6612 36.3978 16.1138 36.4043 23.9746 36.4043C31.7324 36.4043 32.297 36.3965 32.8353 36.2812C36.0344 35.596 38.6357 33.2858 39.6273 30.2492C39.9739 29.188 40.0388 28.724 40.0388 27.3069C40.0388 25.867 39.9752 25.453 39.5821 24.3309C39.0194 22.725 37.8419 21.0876 36.5661 20.1373C36.2783 19.9228 36.1441 19.773 36.1118 19.63C36.0143 19.1975 35.5143 17.9745 35.1612 17.3043C33.4788 14.1114 30.4988 11.8008 26.9169 10.9118C25.6723 10.6029 23.4591 10.5073 22.1104 10.7043ZM24.5834 16.2836C25.8271 16.4133 26.9408 16.8128 27.8707 17.4628C28.1123 17.6317 28.3321 17.7699 28.3591 17.7699C28.4497 17.7699 29.367 18.7458 29.6723 19.1671C30.4647 20.2602 30.9414 21.7819 30.9414 23.2183L30.9414 23.8466L31.1274 23.8815C31.2297 23.9007 31.4549 23.9349 31.6278 23.9576C32.0604 24.0144 32.94 24.4612 33.3161 24.8152C35.0123 26.4118 34.7205 29.1453 32.7284 30.3223C32.5766 30.412 32.2722 30.5539 32.052 30.6378L31.6516 30.7903L24.2322 30.8089C16.1292 30.8293 16.2967 30.8363 15.4746 30.4412C14.572 30.0075 13.8001 28.9466 13.6222 27.8953C13.3882 26.5123 14.1877 24.9639 15.4583 24.34C15.8914 24.1273 16.6585 23.9274 17.0417 23.9274C17.4052 23.9274 18.1386 24.1145 18.5391 24.3093C19.0386 24.5524 19.7379 25.2035 20.0021 25.6715L20.207 26.0347L22.2557 23.9868C24.1085 22.1348 24.2974 21.9256 24.2307 21.799C24.1901 21.7221 23.8496 21.354 23.474 20.9809C22.3618 19.8765 21.14 19.1472 19.642 18.6937L18.8996 18.4689L19.2896 18.0984C20.3117 17.1275 21.7569 16.4535 23.1669 16.2901C23.8685 16.2088 23.8664 16.2088 24.5834 16.2836Z" fill="#56653E" style="fill:#56653E;fill:color(display-p3 0.3371 0.3942 0.2420);fill-opacity:1;"/>
<path fill-rule="evenodd" clip-rule="evenodd" d="M22.1104 10.7043C20.37 10.9584 18.4743 11.6889 16.974 12.6835C15.8162 13.4511 14.5113 14.7222 13.655 15.9167C12.9473 16.9039 11.9952 18.8971 11.8328 19.7314C11.7968 19.9162 11.7061 20.0264 11.4199 20.2334C10.8968 20.6117 9.92489 21.6381 9.51601 22.2441C8.87 23.2016 8.44726 24.1423 8.16974 25.2404C7.91359 26.2537 7.86996 27.9856 8.07376 29.0507C8.32639 30.3711 8.73486 31.3604 9.49951 32.5035C10.5291 34.0427 12.3382 35.4025 14.1332 35.9862C15.4322 36.4086 15.1872 36.3898 19.7987 36.4189L24.0437 36.4456L24.0261 33.6518L24.0084 30.858L20.1869 30.8241C16.4079 30.7907 16.3605 30.7886 15.9333 30.6343C14.7089 30.1921 13.8358 29.1573 13.6222 27.8953C13.3882 26.5123 14.1877 24.9639 15.4583 24.34C15.8914 24.1273 16.6585 23.9274 17.0417 23.9274C17.4052 23.9274 18.1386 24.1145 18.5391 24.3093C19.0386 24.5524 19.7379 25.2035 20.0021 25.6715L20.207 26.0347L22.2557 23.9868C24.1085 22.1348 24.2974 21.9256 24.2307 21.799C24.1901 21.7221 23.8496 21.354 23.474 20.9809C22.3618 19.8765 21.14 19.1472 19.642 18.6937L18.8996 18.4689L19.2896 18.0984C21.5933 15.91 25.2641 15.6407 27.8785 17.4683L28.3255 17.7808L30.3098 15.7974C31.4012 14.7065 32.2924 13.7833 32.2903 13.7458C32.2882 13.7084 32.1131 13.5373 31.9014 13.3656C30.5447 12.2656 28.6875 11.3512 26.9169 10.9118C25.6723 10.6029 23.4591 10.5073 22.1104 10.7043Z" fill="#9AB175" style="fill:#9AB175;fill:color(display-p3 0.6050 0.6952 0.4575);fill-opacity:1;"/>
<path fill-rule="evenodd" clip-rule="evenodd" d="M22.1093 10.7043C20.3689 10.9584 18.4733 11.6889 16.973 12.6835C15.8151 13.4511 14.5103 14.7222 13.654 15.9167C12.9463 16.9039 11.9942 18.897 11.8317 19.7314C11.7957 19.9162 11.705 20.0264 11.4188 20.2334C10.8947 20.6124 9.92356 21.6385 9.51293 22.2471C8.85954 23.2155 8.41881 24.2299 8.10828 25.4807C7.93377 26.1834 7.89813 28.0903 8.04416 28.9108C8.27839 30.2271 8.72507 31.3417 9.45983 32.4433C9.89157 33.0907 10.7935 34.0821 11.2792 34.4431L11.5377 34.6353L13.562 32.6118C14.6754 31.4988 15.5864 30.5723 15.5864 30.5529C15.5864 30.5334 15.4212 30.4187 15.2192 30.298C14.1038 29.6308 13.4285 28.2216 13.6127 26.9454C13.9654 24.5017 16.6886 23.179 18.7736 24.4385C19.2337 24.7165 19.7915 25.2756 19.9992 25.6667C20.0831 25.8248 20.1824 25.9542 20.22 25.9542C20.2574 25.9542 21.1958 25.0461 22.3051 23.9363L24.3221 21.9185L24.1359 21.6873C23.0201 20.3019 21.4136 19.2304 19.6529 18.6973L18.8986 18.4689L19.2886 18.0984C21.5922 15.91 25.263 15.6407 27.8774 17.4683L28.3245 17.7808L30.3088 15.7974C31.4001 14.7065 32.2913 13.7833 32.2892 13.7458C32.2871 13.7084 32.1121 13.5373 31.9003 13.3656C30.5437 12.2656 28.6864 11.3512 26.9158 10.9118C25.6713 10.6029 23.4581 10.5073 22.1093 10.7043Z" fill="#9AB175" style="fill:#9AB175;fill:color(display-p3 0.6050 0.6952 0.4575);fill-opacity:1;"/>
<path fill-rule="evenodd" clip-rule="evenodd" d="M22.1469 10.6996C19.5981 11.0745 17.2603 12.204 15.3766 13.9707C14.1918 15.0818 13.3491 16.2209 12.6408 17.6684C12.237 18.494 11.7662 19.7428 11.8116 19.8681C11.8229 19.8991 12.1212 19.7585 12.4746 19.5558C14.1033 18.6216 16.0616 18.1886 17.8415 18.369C18.2719 18.4126 18.6684 18.4654 18.7225 18.4861C18.7833 18.5095 19.0114 18.3491 19.3173 18.0681C21.076 16.4521 23.4248 15.8786 25.7761 16.491C26.4402 16.664 27.4705 17.1465 27.9518 17.5098L28.3183 17.7866L30.3055 15.8003C31.3985 14.7078 32.2913 13.7833 32.2895 13.7458C32.281 13.565 30.57 12.3784 29.6611 11.923C28.4751 11.3288 27.0965 10.8949 25.7908 10.7049C24.9274 10.5792 22.9846 10.5764 22.1469 10.6996Z" fill="#56653E" style="fill:#56653E;fill:color(display-p3 0.3371 0.3942 0.2420);fill-opacity:1;"/>
<defs>
<linearGradient id="paint0_linear_1643_6621" x1="24.0236" y1="0" x2="24.0236" y2="48.0473" gradientUnits="userSpaceOnUse">
<stop stop-color="#E7F2D4" style="stop-color:#E7F2D4;stop-color:color(display-p3 0.9041 0.9482 0.8327);stop-opacity:1;"/>
<stop offset="1" stop-color="#E7F2D4" style="stop-color:#E7F2D4;stop-color:color(display-p3 0.9041 0.9482 0.8327);stop-opacity:1;"/>
</linearGradient>
</defs>
</svg>
