<svg width="49" height="48" viewBox="0 0 49 48" fill="none" xmlns="http://www.w3.org/2000/svg">
<rect x="0.500132" y="0.5" width="47" height="47" rx="11.5" transform="matrix(1 0 0.000264314 1 -0.000132157 2.98023e-08)" fill="url(#paint0_linear_1643_6636)"/>
<rect x="0.500132" y="0.5" width="47" height="47" rx="11.5" transform="matrix(1 0 0.000264314 1 -0.000132157 2.98023e-08)" stroke="#F5F4F5" style="stroke:#F5F4F5;stroke:color(display-p3 0.9600 0.9575 0.9625);stroke-opacity:1;"/>
<path d="M19.3143 31.8738C19.3143 31.9861 19.1853 32.076 19.0225 32.076C18.8373 32.0928 18.7082 32.003 18.7082 31.8738C18.7081 31.7614 18.8372 31.6715 19 31.6715C19.1684 31.6547 19.3143 31.7446 19.3143 31.8738ZM17.5688 31.621C17.5295 31.7333 17.6418 31.8625 17.8101 31.8962C17.9561 31.9524 18.1244 31.8962 18.1581 31.7839C18.1918 31.6715 18.0851 31.5423 17.9167 31.4918C17.7708 31.4525 17.608 31.5086 17.5688 31.621ZM20.0495 31.5255C19.8868 31.5648 19.7745 31.6715 19.7914 31.8007C19.8083 31.9131 19.9542 31.9861 20.1226 31.9468C20.2853 31.9075 20.3976 31.8007 20.3807 31.6884C20.3639 31.5817 20.2123 31.5086 20.0495 31.5255ZM23.7398 10C15.9551 10 10.0008 15.915 10.0018 23.7062C10.0026 29.9358 13.921 35.2666 19.5171 37.1428C20.2355 37.272 20.488 36.8282 20.488 36.4631C20.4879 36.1148 20.4709 34.1937 20.4707 33.0141C20.4707 33.0141 16.5419 33.8567 15.7165 31.3401C15.7165 31.3401 15.0765 29.7055 14.1559 29.2842C14.1559 29.2842 12.8705 28.4023 14.2456 28.4191C14.2456 28.4191 15.6432 28.5315 16.4123 29.8684C17.6418 32.0367 19.7015 31.4131 20.5041 31.0424C20.6331 30.1436 20.9978 29.5201 21.4019 29.1494C18.2644 28.8011 15.0987 28.3461 15.098 22.9423C15.0978 21.3975 15.5243 20.6223 16.4222 19.6337C16.2762 19.2685 15.7989 17.7631 16.5676 15.8195C17.7406 15.4544 20.4406 17.3362 20.4406 17.3362C21.5631 17.0216 22.7698 16.8587 23.9653 16.8587C25.1608 16.8587 26.3675 17.0216 27.4901 17.3362C27.4901 17.3362 30.1895 15.4488 31.3626 15.8195C32.1318 17.7687 31.655 19.2685 31.5091 19.6337C32.4072 20.6279 32.9574 21.4031 32.9576 22.9423C32.9583 28.3629 29.6525 28.7955 26.515 29.1494C27.0315 29.5931 27.4694 30.4357 27.4695 31.7558C27.4698 33.6488 27.4533 35.9912 27.4533 36.4519C27.4534 36.817 27.7116 37.2608 28.4244 37.1316C34.0368 35.2666 37.8415 29.9358 37.8407 23.7062C37.8397 15.915 31.5246 10 23.7398 10ZM15.4581 29.3741C15.3851 29.4302 15.402 29.5594 15.4974 29.6662C15.5872 29.756 15.7163 29.7954 15.7893 29.7223C15.8622 29.6662 15.8454 29.537 15.75 29.4302C15.6601 29.3404 15.531 29.301 15.4581 29.3741ZM14.8519 28.9191C14.8126 28.9921 14.8687 29.082 14.981 29.1381C15.0708 29.1943 15.183 29.1775 15.2223 29.0988C15.2616 29.0258 15.2055 28.9359 15.0932 28.8797C14.9809 28.846 14.8911 28.8629 14.8519 28.9191ZM16.6706 30.9188C16.5808 30.9918 16.6145 31.1604 16.7436 31.2671C16.8728 31.3963 17.0355 31.4131 17.1085 31.3233C17.1814 31.2502 17.1477 31.0817 17.0355 30.975C16.912 30.8458 16.7436 30.8289 16.6706 30.9188ZM16.0307 30.0931C15.9409 30.1493 15.9409 30.2953 16.0307 30.4245C16.1205 30.5537 16.2721 30.6099 16.345 30.5537C16.4348 30.4807 16.4348 30.3346 16.345 30.2054C16.2664 30.0762 16.1205 30.0201 16.0307 30.0931Z" fill="#56653E" style="fill:#56653E;fill:color(display-p3 0.3371 0.3942 0.2420);fill-opacity:1;"/>
<defs>
<linearGradient id="paint0_linear_1643_6636" x1="24" y1="0" x2="24" y2="48" gradientUnits="userSpaceOnUse">
<stop stop-color="#E7F2D4" style="stop-color:#E7F2D4;stop-color:color(display-p3 0.9041 0.9482 0.8327);stop-opacity:1;"/>
<stop offset="1" stop-color="#E7F2D4" style="stop-color:#E7F2D4;stop-color:color(display-p3 0.9041 0.9482 0.8327);stop-opacity:1;"/>
</linearGradient>
</defs>
</svg>
