<svg width="49" height="48" viewBox="0 0 49 48" fill="none" xmlns="http://www.w3.org/2000/svg">
<rect x="0.499833" y="0.5" width="47" height="47" rx="11.5" transform="matrix(1 0 -0.000333974 1 0.0161977 2.98023e-08)" fill="url(#paint0_linear_1643_6629)"/>
<rect x="0.499833" y="0.5" width="47" height="47" rx="11.5" transform="matrix(1 0 -0.000333974 1 0.0161977 2.98023e-08)" stroke="#F5F4F5" style="stroke:#F5F4F5;stroke:color(display-p3 0.9600 0.9575 0.9625);stroke-opacity:1;"/>
<path d="M33.4507 13.5823H21.4612C21.4611 15.0182 22.0308 16.3952 23.045 17.4106C24.0593 18.4259 25.435 18.9965 26.8699 18.9968H29.0777L29.077 21.1293C29.0768 22.5653 29.6465 23.9423 30.6607 24.9576C31.675 25.973 33.0507 26.5436 34.4856 26.5439L34.4896 14.623C34.4897 14.0482 34.025 13.5823 33.4507 13.5823Z" fill="#56653E" style="fill:#56653E;fill:color(display-p3 0.3371 0.3942 0.2420);fill-opacity:1;"/>
<path d="M27.5022 19.5597H15.5128C15.5127 20.9956 16.0823 22.3726 17.0966 23.3879C18.1108 24.4033 19.4866 24.9739 20.9214 24.9742H23.1292L23.1285 27.1067C23.1284 28.5427 23.6981 29.9197 24.7123 30.935C25.7265 31.9504 27.1023 32.5209 28.5371 32.5213L28.5411 20.6004C28.5413 20.0256 28.0766 19.5597 27.5022 19.5597Z" fill="#56653E" style="fill:#56653E;fill:color(display-p3 0.3371 0.3942 0.2420);fill-opacity:1;"/>
<path d="M21.5797 25.534H9.59025C9.59012 26.97 10.1598 28.347 11.174 29.3623C12.1883 30.3777 13.564 30.9482 14.9989 30.9486H17.2067L17.206 33.0811C17.2058 34.517 17.7755 35.894 18.7898 36.9094C19.804 37.9247 21.1798 38.4953 22.6146 38.4957L22.6186 26.5754C22.6188 26 22.154 25.534 21.5797 25.534Z" fill="#56653E" style="fill:#56653E;fill:color(display-p3 0.3371 0.3942 0.2420);fill-opacity:1;"/>
<defs>
<linearGradient id="paint0_linear_1643_6629" x1="24" y1="0" x2="24" y2="48" gradientUnits="userSpaceOnUse">
<stop stop-color="#E7F2D4" style="stop-color:#E7F2D4;stop-color:color(display-p3 0.9041 0.9482 0.8327);stop-opacity:1;"/>
<stop offset="1" stop-color="#E7F2D4" style="stop-color:#E7F2D4;stop-color:color(display-p3 0.9041 0.9482 0.8327);stop-opacity:1;"/>
</linearGradient>
</defs>
</svg>
