<svg width="49" height="48" viewBox="0 0 49 48" fill="none" xmlns="http://www.w3.org/2000/svg">
<rect x="0.499857" y="0.5" width="47" height="47" rx="11.5" transform="matrix(1 0 -0.000285275 1 0.0157676 0)" fill="url(#paint0_linear_1643_6616)"/>
<rect x="0.499857" y="0.5" width="47" height="47" rx="11.5" transform="matrix(1 0 -0.000285275 1 0.0157676 0)" stroke="#F5F4F5" style="stroke:#F5F4F5;stroke:color(display-p3 0.9600 0.9575 0.9625);stroke-opacity:1;"/>
<path d="M37.0543 16.5162L25.0675 9.58859C24.8782 9.47937 24.6635 9.42187 24.445 9.42188C24.2265 9.42188 24.0118 9.47937 23.8224 9.58859L11.833 16.5162C11.6738 16.6082 11.5416 16.7404 11.4496 16.8996C11.3575 17.0589 11.3089 17.2395 11.3087 17.4234L11.3047 31.3907C11.3048 31.5746 11.3533 31.7552 11.4453 31.9145C11.5372 32.0737 11.6694 32.2059 11.8285 32.2979L23.8154 39.2255C24.0047 39.3347 24.2193 39.3922 24.4379 39.3922C24.6564 39.3922 24.8711 39.3347 25.0604 39.2255L37.0513 32.2993C37.2104 32.2074 37.3427 32.0751 37.4347 31.9159C37.5268 31.7567 37.5753 31.576 37.5756 31.3921L37.5796 17.422C37.5794 17.2381 37.5309 17.0575 37.439 16.8982C37.3471 16.739 37.2149 16.6068 37.0558 16.5148L37.0543 16.5162ZM36.3018 17.9834L24.7222 38.0447C24.6443 38.1794 24.4375 38.1241 24.4376 37.9667L24.4413 24.8316C24.4413 24.7023 24.4072 24.5753 24.3426 24.4633C24.278 24.3514 24.1851 24.2584 24.0732 24.1937L12.7095 17.629C12.5735 17.5496 12.6288 17.3426 12.7861 17.3426L35.9309 17.3426C36.2609 17.3426 36.4662 17.6985 36.3018 17.9834Z" fill="#56653E" style="fill:#56653E;fill:color(display-p3 0.3371 0.3942 0.2420);fill-opacity:1;"/>
<defs>
<linearGradient id="paint0_linear_1643_6616" x1="24" y1="0" x2="24" y2="48" gradientUnits="userSpaceOnUse">
<stop stop-color="#E7F2D4" style="stop-color:#E7F2D4;stop-color:color(display-p3 0.9041 0.9482 0.8327);stop-opacity:1;"/>
<stop offset="1" stop-color="#E7F2D4" style="stop-color:#E7F2D4;stop-color:color(display-p3 0.9041 0.9482 0.8327);stop-opacity:1;"/>
</linearGradient>
</defs>
</svg>
