<svg width="48" height="48" viewBox="0 0 48 48" fill="none" xmlns="http://www.w3.org/2000/svg">
<rect x="0.5" y="0.5" width="47" height="47" rx="11.5" fill="url(#paint0_linear_1643_6648)"/>
<rect x="0.5" y="0.5" width="47" height="47" rx="11.5" stroke="#F5F4F5" style="stroke:#F5F4F5;stroke:color(display-p3 0.9600 0.9575 0.9625);stroke-opacity:1;"/>
<path d="M26.5772 8.65721C26.2922 8.15643 25.8897 7.74216 25.4088 7.45458C24.9279 7.16699 24.385 7.01587 23.8326 7.01587C23.2803 7.01587 22.7374 7.16699 22.2565 7.45458C21.7756 7.74216 21.3731 8.15643 21.0881 8.65721L16.5733 16.8427C20.0224 18.6655 22.9611 21.4117 25.0976 24.8084C27.234 28.2052 28.494 32.1345 28.7523 36.2061H25.5823C25.3245 32.716 24.2102 29.3576 22.3497 26.4633C20.4892 23.5691 17.9469 21.2392 14.9745 19.7044L10.7959 27.3524C12.4669 28.1457 13.9227 29.371 15.0293 30.9155C16.136 32.4601 16.858 34.2744 17.129 36.1916H9.84906C9.76272 36.1851 9.67926 36.156 9.60621 36.1069C9.53315 36.0578 9.4728 35.9901 9.43059 35.9102C9.38838 35.8302 9.36565 35.7403 9.36444 35.6487C9.36323 35.5571 9.38358 35.4666 9.42365 35.3854L11.4409 31.7538C10.7578 31.1497 9.97663 30.6821 9.13547 30.3739L7.1388 34.0054C6.93094 34.3828 6.79599 34.8002 6.74181 35.2333C6.68762 35.6664 6.71528 36.1065 6.82317 36.5282C6.93105 36.9499 7.11702 37.3447 7.37027 37.6896C7.62352 38.0345 7.939 38.3228 8.29838 38.5376C8.77188 38.82 9.30558 38.97 9.84906 38.9734H19.8187C20.0039 36.5548 19.5958 34.1266 18.6342 31.924C17.6725 29.7213 16.1898 27.8189 14.3296 26.4009L15.9146 23.4957C18.2621 25.2025 20.1487 27.5277 21.3881 30.242C22.6274 32.9563 23.1768 35.9657 22.9818 38.9734H31.4282C31.6249 34.4172 30.6886 29.8862 28.7127 25.8331C26.7368 21.7801 23.7907 18.3469 20.1686 15.8767L23.3729 10.0662C23.4443 9.93961 23.5601 9.84796 23.695 9.81123C23.8299 9.7745 23.9731 9.79568 24.0934 9.87014C24.457 10.0808 38.0152 35.1239 38.2691 35.4144C38.3138 35.4993 38.3365 35.5952 38.335 35.6924C38.3335 35.7896 38.3078 35.8846 38.2604 35.9679C38.2131 36.0512 38.1458 36.1198 38.0654 36.1667C37.985 36.2136 37.8943 36.2373 37.8025 36.2352H34.5365C34.5776 37.16 34.5776 38.0824 34.5365 39.0024H37.8162C38.2327 39.0053 38.6456 38.9207 39.0309 38.7536C39.4163 38.5864 39.7666 38.34 40.0614 38.0286C40.3562 37.7172 40.5897 37.347 40.7485 36.9394C40.9072 36.5318 40.988 36.095 40.9862 35.6541C40.9863 35.0719 40.8394 34.5002 40.5608 33.9981L26.5772 8.65721Z" fill="#56653E" style="fill:#56653E;fill:color(display-p3 0.3371 0.3942 0.2420);fill-opacity:1;"/>
<defs>
<linearGradient id="paint0_linear_1643_6648" x1="24" y1="0" x2="24" y2="48" gradientUnits="userSpaceOnUse">
<stop stop-color="#E7F2D4" style="stop-color:#E7F2D4;stop-color:color(display-p3 0.9041 0.9482 0.8327);stop-opacity:1;"/>
<stop offset="1" stop-color="#E7F2D4" style="stop-color:#E7F2D4;stop-color:color(display-p3 0.9041 0.9482 0.8327);stop-opacity:1;"/>
</linearGradient>
</defs>
</svg>
