<svg width="49" height="48" viewBox="0 0 49 48" fill="none" xmlns="http://www.w3.org/2000/svg">
<rect x="0.500132" y="0.5" width="47" height="47" rx="11.5" transform="matrix(1 0 0.000264314 1 -0.000132157 2.98023e-08)" fill="url(#paint0_linear_1643_6634)"/>
<rect x="0.500132" y="0.5" width="47" height="47" rx="11.5" transform="matrix(1 0 0.000264314 1 -0.000132157 2.98023e-08)" stroke="#F5F4F5" style="stroke:#F5F4F5;stroke:color(display-p3 0.9600 0.9575 0.9625);stroke-opacity:1;"/>
<path d="M9.35581 27.2084C9.29025 26.9276 9.6245 26.7509 9.82819 26.9548L20.6224 37.7609C20.8264 37.9651 20.6494 38.2996 20.3688 38.2336C14.9203 36.9541 10.6321 32.6615 9.35581 27.2084ZM8.99562 22.8773C8.99336 22.9187 8.99982 22.9602 9.01458 22.9989C9.02934 23.0377 9.05207 23.0729 9.08131 23.1023L24.4714 38.5103C24.5309 38.5695 24.6128 38.6011 24.6962 38.5961C25.3971 38.552 26.0847 38.46 26.7555 38.3218C26.9817 38.2753 27.0602 37.9974 26.897 37.834L9.75761 20.6751C9.59442 20.512 9.3167 20.5904 9.27019 20.8168C9.13052 21.4964 9.03877 22.1849 8.99562 22.8773ZM10.2418 17.7915C10.2181 17.8457 10.2112 17.9057 10.2221 17.9638C10.2331 18.0219 10.2614 18.0754 10.3032 18.1171L29.4533 37.2883C29.5387 37.3741 29.6679 37.3992 29.7786 37.3498C30.3048 37.1152 30.8169 36.8499 31.3122 36.5555C31.3502 36.5327 31.3825 36.5015 31.4066 36.4643C31.4307 36.4271 31.4459 36.3849 31.4512 36.3409C31.4564 36.2969 31.4515 36.2522 31.4368 36.2104C31.4221 36.1686 31.3981 36.1307 31.3665 36.0997L11.4922 16.2025C11.4612 16.1708 11.4233 16.1467 11.3815 16.132C11.3397 16.1172 11.2951 16.1123 11.251 16.1175C11.207 16.1227 11.1648 16.138 11.1276 16.1621C11.0904 16.1863 11.0592 16.2186 11.0364 16.2567C10.742 16.7523 10.4768 17.2647 10.2421 17.7912M12.7417 14.3489C12.6888 14.2965 12.6579 14.2257 12.6555 14.1512C12.653 14.0767 12.6792 14.004 12.7286 13.9482C15.4403 10.9119 19.3835 9 23.7725 9C31.9467 9 38.5713 15.6316 38.5684 23.8123C38.5669 28.2043 36.6551 32.1501 33.6199 34.8629C33.564 34.9123 33.4914 34.9384 33.417 34.9359C33.3425 34.9334 33.2718 34.9025 33.2194 34.8495L12.7417 14.3489Z" fill="#56653E" style="fill:#56653E;fill:color(display-p3 0.3371 0.3942 0.2420);fill-opacity:1;"/>
<defs>
<linearGradient id="paint0_linear_1643_6634" x1="24" y1="0" x2="24" y2="48" gradientUnits="userSpaceOnUse">
<stop stop-color="#E7F2D4" style="stop-color:#E7F2D4;stop-color:color(display-p3 0.9041 0.9482 0.8327);stop-opacity:1;"/>
<stop offset="1" stop-color="#E7F2D4" style="stop-color:#E7F2D4;stop-color:color(display-p3 0.9041 0.9482 0.8327);stop-opacity:1;"/>
</linearGradient>
</defs>
</svg>
