<svg width="48" height="48" viewBox="0 0 48 48" fill="none" xmlns="http://www.w3.org/2000/svg">
<rect x="0.5" y="0.5" width="47" height="47" rx="11.5" fill="url(#paint0_linear_1643_6646)"/>
<rect x="0.5" y="0.5" width="47" height="47" rx="11.5" stroke="#F5F4F5" style="stroke:#F5F4F5;stroke:color(display-p3 0.9600 0.9575 0.9625);stroke-opacity:1;"/>
<path fill-rule="evenodd" clip-rule="evenodd" d="M29.7802 8.10328C26.4058 8.50374 22.1752 8.99753 20.3787 9.20077C18.5823 9.404 15.7817 9.72719 14.1552 9.91896C12.5287 10.1107 10.4829 10.3518 9.609 10.4546C8.73506 10.5573 8.00952 10.6505 7.99672 10.6617C7.98392 10.6728 8.17027 12.2657 8.411 14.2016C8.65164 16.1375 9.01216 19.0709 9.2122 20.7204C9.41214 22.3699 9.8499 25.9027 10.185 28.571C10.5201 31.2393 10.9365 34.6117 11.1103 36.0653C11.2842 37.5188 11.438 38.7196 11.452 38.7337C11.4662 38.7477 12.1893 38.6599 13.0592 38.5386C13.9291 38.4173 14.6506 38.3181 14.6628 38.3181C14.8088 38.3177 14.5338 37.9802 13.8108 37.2722C13.1065 36.5827 12.9165 36.3416 12.8331 36.0321C12.6958 35.5223 12.7862 34.9295 13.1033 34.2591C13.4394 33.5492 13.7259 33.2266 14.9497 32.1798C16.7794 30.6148 17.39 29.8921 17.6566 28.9752C17.776 28.5653 17.7813 28.3839 17.6928 27.7517C17.5655 26.8425 17.307 26.1275 16.9727 25.7606L16.7205 25.4837L16.7127 25.7483C16.7056 25.9889 16.6814 25.9654 16.446 25.4915C16.0462 24.6863 15.7442 24.4195 15.7442 24.8714C15.7442 25.2096 15.5767 25.0415 15.5121 24.6387C15.4478 24.2363 15.3028 24.0848 15.3028 24.42C15.3028 24.5441 15.2699 24.6457 15.2297 24.6457C15.1435 24.6457 14.9497 23.857 14.9497 23.5061C14.9497 23.3718 14.871 23.0334 14.7748 22.7539C14.5156 22.0012 14.3115 20.1085 14.4722 19.948C14.5008 19.9193 14.6846 19.9524 14.8805 20.0215C15.6835 20.3045 16.9284 20.1126 17.5337 19.6125C18.0286 19.2033 18.1288 18.9432 18.1358 18.0484C18.1445 16.9424 17.8294 15.6818 17.1062 13.9284C16.7379 13.0352 16.2832 12.0554 16.2779 12.1431C16.2757 12.1801 16.4091 12.6564 16.5745 13.2016C17.2595 15.4612 17.4738 16.9045 17.2453 17.7199C17.0885 18.2794 16.5549 18.8497 15.8752 19.184C15.397 19.4193 15.2489 19.4534 14.9194 19.404C13.9109 19.2528 12.4424 17.9663 11.7281 16.608C11.3163 15.825 11.317 15.4502 11.7316 14.7094L12.0445 14.1503L11.8141 14.2378C11.6874 14.286 11.5442 14.3253 11.4958 14.3253C11.3845 14.3253 12.1329 13.6751 12.5987 13.3673L12.9509 13.1345L12.6923 13.0818C12.4376 13.0298 12.4405 13.026 12.8952 12.8171C13.4044 12.5833 13.508 12.4214 13.0959 12.5038C12.6519 12.5926 12.8007 12.4429 13.4279 12.17C15.9377 11.078 16.3179 11.0613 17.002 12.0127C17.3746 12.5309 17.9785 12.9464 18.6374 13.1378L19.127 13.28L19.7087 13.0141C20.0286 12.8679 20.3998 12.7217 20.5336 12.6891C20.6673 12.6567 21.042 12.4188 21.3662 12.1607C21.6904 11.9025 22.0269 11.6726 22.1138 11.65C22.2619 11.6112 22.2632 11.6256 22.1354 11.8725C21.9498 12.2313 22.0303 12.2705 22.3896 11.9967C22.7794 11.6996 22.8419 11.7073 22.6739 12.0319C22.5986 12.1774 22.5592 12.2965 22.5864 12.2965C22.6135 12.2965 22.8317 12.1973 23.0712 12.076C23.595 11.8108 23.6333 11.8064 23.5156 12.0261C23.4654 12.1199 23.4243 12.2192 23.4243 12.2466C23.4243 12.274 23.8712 12.2956 24.4174 12.2946C25.8482 12.2918 26.1285 12.1411 27.0707 10.868C27.6088 10.1408 27.9804 9.9149 28.6379 9.9149C29.1821 9.9149 29.6623 10.2145 30.5305 11.0959C31.4182 11.9971 31.9643 12.8443 32.2984 13.8387C32.5522 14.594 32.5704 14.8765 32.3781 15.0688C31.9852 15.4613 31.0799 14.9478 30.2726 13.8747C29.7204 13.1407 29.4703 12.6352 29.2437 11.7945C29.0751 11.1692 28.6672 10.3802 28.5651 10.4822C28.5425 10.5048 28.5704 10.6544 28.6273 10.8145C28.6841 10.9747 28.7659 11.5308 28.8091 12.0503C28.8665 12.743 28.9499 13.143 29.1216 13.5499C29.3311 14.0461 29.4076 14.5506 29.291 14.6671C29.2677 14.6903 29.1398 14.609 29.0069 14.4862C28.6936 14.1972 28.0747 13.7848 27.5733 13.5309C27.2274 13.3557 27.3174 13.4651 28.2694 14.3771C30.0459 16.0789 30.504 16.8949 30.6285 18.5801L30.6889 19.3973L31.3525 20.2794C32.2953 21.5327 32.5458 22.105 32.5881 23.1021C32.6265 24.0085 32.4659 24.8448 32.124 25.519L31.9055 25.9497L31.1497 26.0569C30.3879 26.1649 29.7802 26.1229 29.7802 25.962C29.7802 25.9142 29.8398 25.7324 29.9126 25.5583C30.1541 24.9806 30.06 24.932 29.6229 25.4085C28.8957 26.2013 27.8662 26.8994 27.1804 27.0649C26.6789 27.1859 25.7494 27.1275 25.1775 26.9389C24.3472 26.6652 22.7766 25.8769 21.9345 25.3114C21.5279 25.0383 21.185 24.8265 21.1724 24.8406C21.0308 25.0003 22.2513 26.1919 23.3106 26.9281C23.5637 27.104 23.7722 27.2697 23.774 27.2962C23.7759 27.3228 23.2935 27.393 22.7019 27.4521C22.1104 27.5112 21.6187 27.5688 21.6092 27.5801C21.589 27.6045 21.7897 29.2297 22.2763 32.9814C22.4714 34.4854 22.6308 35.7798 22.6304 35.8581C22.63 35.9601 22.4887 36.0286 22.1295 36.1006C21.8545 36.1559 21.6237 36.1911 21.6169 36.179C21.6101 36.1668 21.4933 35.8673 21.3575 35.5134C20.7596 33.9566 19.5884 32.7943 18.2601 32.4397C17.7491 32.3034 16.3802 32.2824 16.1856 32.4081C16.0921 32.4684 16.2128 32.494 16.5956 32.4949C17.781 32.4979 18.93 33.0993 19.6155 34.0758C20.7025 35.6243 21.2173 37.7091 20.8092 38.9103C20.3424 40.2841 19.3393 40.9401 17.8305 40.8581C17.2932 40.829 16.9911 40.7607 16.6304 40.5869C16.3652 40.4592 16.1363 40.3667 16.1217 40.3812C16.0393 40.4635 16.8697 41.2456 17.2238 41.4193C17.7789 41.6916 19.0721 41.7119 19.7969 41.4597C21.0178 41.035 21.7438 39.6627 21.7463 37.775L21.747 37.2761L22.1966 37.2143C22.444 37.1803 22.6769 37.1865 22.7144 37.228C22.752 37.2696 22.8537 37.8331 22.9406 38.4804C23.0346 39.1811 23.1413 39.6736 23.2044 39.6978C23.2626 39.7201 25.4512 39.4794 28.068 39.1629C34.5372 38.3805 38.621 37.8952 39.3386 37.8236C39.6677 37.7908 39.9567 37.732 39.9808 37.693C40.0159 37.6364 39.5663 33.1134 38.7145 24.9544L38.6499 24.337L38.2344 24.3632C37.7355 24.3946 37.7833 24.5318 37.5965 22.5287C37.522 21.7282 37.3208 19.6443 37.1493 17.8978C36.9779 16.1512 36.7002 13.2536 36.5321 11.4585C36.1573 7.45574 36.1446 7.35456 36.0175 7.36612C35.9613 7.37115 33.1546 7.7029 29.7802 8.10328ZM28.4631 16.7123C28.3137 16.774 28.2775 16.8284 28.3424 16.8933C28.4061 16.9569 28.4071 17.0604 28.3459 17.2225C28.2751 17.41 28.2969 17.5527 28.451 17.9106C28.748 18.6004 29.0078 18.7973 29.6814 18.8429L30.2447 18.881L30.1961 18.2385C30.1413 17.5148 29.9612 17.1319 29.5595 16.8847C29.2201 16.6759 28.7359 16.5998 28.4631 16.7123ZM22.2081 17.7347C21.1578 18.1111 20.7717 19.2092 21.3695 20.1206C21.6234 20.5079 21.7631 20.5207 22.6152 20.2355C23.0502 20.0898 23.4888 19.9707 23.5897 19.9707C24.0407 19.9707 24.2628 19.0646 23.9634 18.4465C23.8596 18.2323 23.7852 17.9616 23.7981 17.8451C23.8207 17.6406 23.7997 17.6325 23.2036 17.6163C22.8296 17.6061 22.4366 17.6528 22.2081 17.7347ZM30.0691 22.0006C29.3116 22.0821 28.2577 22.3867 28.0642 22.58C27.8343 22.8097 27.8927 23.2204 28.1954 23.503C28.6347 23.9131 29.4841 24.2929 29.9617 24.2929C30.3331 24.2929 30.4118 24.2565 30.6654 23.9678C31.2233 23.3329 31.5398 22.339 31.2583 22.1056C31.0789 21.9568 30.7481 21.9276 30.0691 22.0006ZM37.8151 25.6822C37.8162 25.7671 38.0122 28.1586 38.2507 30.9967C38.4892 33.8348 38.6572 36.1818 38.624 36.2123C38.5908 36.2427 38.0473 36.3555 37.4161 36.4628C36.7849 36.5702 33.5672 37.1474 30.2657 37.7456C26.9642 38.3436 24.145 38.8461 24.0009 38.8622L23.7389 38.8914L23.5777 37.48C23.4891 36.7038 23.2022 34.3045 22.9403 32.1485C22.6783 29.9923 22.4796 28.2028 22.4988 28.1718C22.5179 28.1407 22.9907 28.0628 23.5492 27.9985C24.5343 27.8851 24.5854 27.8878 25.2525 28.0882C26.653 28.509 27.7369 28.3214 28.6282 27.5042L29.1181 27.0549L32.1195 26.5065C33.7703 26.2049 35.6175 25.8659 36.2244 25.7532C37.6331 25.4916 37.8128 25.4836 37.8151 25.6822ZM36.6631 27.8421C36.501 28.1945 36.0205 29.2071 35.5951 30.0924L34.8217 31.7019L33.3967 30.769C32.613 30.2558 31.9613 29.849 31.9487 29.865C31.936 29.8811 31.3966 30.779 30.7501 31.8606C30.1035 32.9422 29.5314 33.8109 29.4787 33.7912C29.426 33.7713 28.8077 33.5869 28.1047 33.3813C26.8769 33.0221 26.8218 33.0138 26.7062 33.1708C26.64 33.2607 26.0908 34.0884 25.4859 35.0102L24.386 36.6862L24.4327 37.25C24.4583 37.5601 24.4975 37.8322 24.52 37.8545C24.5423 37.8768 26.2812 37.575 28.3842 37.1837C30.4872 36.7923 33.4393 36.2487 34.9444 35.9757C36.4495 35.7026 37.6982 35.4622 37.7193 35.4415C37.7554 35.4062 37.0217 27.2749 36.9779 27.2247C36.9669 27.212 36.8252 27.4898 36.6631 27.8421Z" fill="#56653E" style="fill:#56653E;fill:color(display-p3 0.3371 0.3942 0.2420);fill-opacity:1;"/>
<defs>
<linearGradient id="paint0_linear_1643_6646" x1="24" y1="0" x2="24" y2="48" gradientUnits="userSpaceOnUse">
<stop stop-color="#E7F2D4" style="stop-color:#E7F2D4;stop-color:color(display-p3 0.9041 0.9482 0.8327);stop-opacity:1;"/>
<stop offset="1" stop-color="#E7F2D4" style="stop-color:#E7F2D4;stop-color:color(display-p3 0.9041 0.9482 0.8327);stop-opacity:1;"/>
</linearGradient>
</defs>
</svg>
