<svg width="49" height="49" viewBox="0 0 49 49" fill="none" xmlns="http://www.w3.org/2000/svg">
<rect x="0.500132" y="0.5" width="47.0473" height="47.0473" rx="11.5" transform="matrix(1 0 0.000264314 1 -0.000132157 2.98023e-08)" fill="url(#paint0_linear_1643_6626)"/>
<rect x="0.500132" y="0.5" width="47.0473" height="47.0473" rx="11.5" transform="matrix(1 0 0.000264314 1 -0.000132157 2.98023e-08)" stroke="#F5F4F5" style="stroke:#F5F4F5;stroke:color(display-p3 0.9600 0.9575 0.9625);stroke-opacity:1;"/>
<g clip-path="url(#clip0_1643_6626)">
<path d="M25.0499 13.4011L25.0499 29.0335L37.9963 13.4023L25.0499 13.4011ZM9.96875 13.4035C9.96875 16.977 12.8684 19.8778 16.442 19.8778C20.0155 19.8778 22.914 16.977 22.9152 13.4035H9.96875ZM22.9152 19.0171L9.96875 34.646H22.9152L22.9152 19.0171ZM31.522 28.1728C30.6719 28.1725 29.83 28.3398 29.0446 28.665C28.2591 28.9902 27.5455 29.467 26.9444 30.0682C26.3434 30.6693 25.8667 31.3831 25.5416 32.1686C25.2165 32.9541 25.0495 33.7959 25.0499 34.646H37.9963C37.9963 31.0725 35.1001 28.1728 31.5231 28.1728H31.522Z" fill="#56653E" style="fill:#56653E;fill:color(display-p3 0.3371 0.3942 0.2420);fill-opacity:1;"/>
</g>
<defs>
<linearGradient id="paint0_linear_1643_6626" x1="24.0236" y1="0" x2="24.0236" y2="48.0473" gradientUnits="userSpaceOnUse">
<stop stop-color="#E7F2D4" style="stop-color:#E7F2D4;stop-color:color(display-p3 0.9041 0.9482 0.8327);stop-opacity:1;"/>
<stop offset="1" stop-color="#E7F2D4" style="stop-color:#E7F2D4;stop-color:color(display-p3 0.9041 0.9482 0.8327);stop-opacity:1;"/>
</linearGradient>
<clipPath id="clip0_1643_6626">
<rect width="28.0276" height="28.0276" fill="white" style="fill:white;fill-opacity:1;" transform="translate(9.96875 10.0098)"/>
</clipPath>
</defs>
</svg>
