<svg width="48" height="48" viewBox="0 0 48 48" fill="none" xmlns="http://www.w3.org/2000/svg">
<rect x="0.5" y="0.5" width="47" height="47" rx="11.5" fill="url(#paint0_linear_1643_6644)"/>
<rect x="0.5" y="0.5" width="47" height="47" rx="11.5" stroke="#F5F4F5" style="stroke:#F5F4F5;stroke:color(display-p3 0.9600 0.9575 0.9625);stroke-opacity:1;"/>
<path d="M19.3247 28.3691C19.3247 27.6745 19.9069 27.1114 20.6252 27.1114C21.3436 27.1114 21.9259 27.6745 21.9259 28.3691V30.6874C21.9259 31.382 21.3436 31.9451 20.6252 31.9451C19.9069 31.9451 19.3247 31.382 19.3247 30.6874V28.3691ZM27.2886 27.1114C26.5716 27.1114 25.9893 27.6745 25.9893 28.3691V30.6874C25.9893 31.382 26.5716 31.9451 27.2886 31.9451C28.0069 31.9451 28.5892 31.382 28.5892 30.6874V28.3691C28.5892 27.6745 28.007 27.1114 27.2886 27.1114Z" fill="#56653E" style="fill:#56653E;fill:color(display-p3 0.3371 0.3942 0.2420);fill-opacity:1;"/>
<path fill-rule="evenodd" clip-rule="evenodd" d="M39.9829 27.1759V30.6428C39.9816 31.0905 39.752 31.5271 39.3788 31.7913C34.9703 34.9121 29.5306 37.4226 23.9895 37.4226C17.8584 37.4226 11.7209 34.0067 8.60028 31.7914C8.227 31.5272 7.99741 31.0906 7.99609 30.6428V27.176C7.99611 26.7213 8.14618 26.2785 8.42448 25.912L9.39801 24.6382C9.91879 23.9548 10.6948 23.7736 11.5209 23.7736C11.8325 20.3329 12.5701 17.877 14.3337 16.0796C17.6917 12.6389 22.1502 12.2903 23.9895 12.2903C25.8288 12.2903 30.2873 12.6389 33.6452 16.0796C35.4064 17.8769 36.1464 20.3328 36.4581 23.7736C37.2867 23.7736 38.0576 23.951 38.5796 24.6381L39.5531 25.9145C39.8328 26.2816 39.9829 26.7207 39.9829 27.1759ZM33.8813 25.6006C33.839 24.8117 33.1759 24.5017 32.4858 24.2822C31.7586 24.7237 30.871 24.8974 30.0206 24.8974C29.1176 24.8974 27.4321 24.6877 26.0302 23.3345C25.6762 22.9947 25.435 22.4613 25.2709 21.8696C24.8459 21.8279 24.4192 21.806 23.9921 21.8039C23.6111 21.8039 23.1737 21.825 22.7082 21.8696C22.544 22.4613 22.3015 22.9947 21.9488 23.3345C20.5494 24.6878 18.8615 24.8974 17.9585 24.8974C17.1081 24.8974 16.218 24.7249 15.4907 24.2822C14.8032 24.5004 14.1439 24.8155 14.099 25.6006C14.0259 27.0841 14.0195 28.5676 14.0131 30.0498C14.0105 30.794 14.008 31.5395 13.9951 32.2837C13.999 32.7167 14.2683 33.1185 14.6749 33.2971C17.9842 34.7546 21.1125 35.4888 23.9921 35.4888C26.8665 35.4888 29.9949 34.7546 33.3016 33.2971C33.7081 33.1185 33.9788 32.7167 33.9813 32.2837C34.0211 30.0585 33.9891 27.8246 33.8788 25.6007L33.8813 25.6006ZM14.7134 22.4985C15.2534 23.0194 16.2731 23.368 17.3723 23.368C18.2124 23.368 19.8107 23.1943 21.1305 21.8981C21.7102 21.3574 22.0707 20.0042 22.0309 18.631C21.9899 17.5296 21.6705 16.6204 21.1908 16.2347C20.6713 15.7894 19.4913 15.5959 18.1714 15.7125C16.772 15.8477 15.5933 16.2917 14.993 16.9106C13.6937 18.2837 13.9733 21.7629 14.7134 22.4985ZM22.8697 19.1148C22.9095 19.3269 22.93 19.5588 22.9493 19.8106C22.9493 19.9843 22.9493 20.1592 22.93 20.3514C23.3302 20.313 23.6702 20.313 23.9895 20.313C24.3089 20.313 24.6488 20.313 25.049 20.3514C25.0285 20.1592 25.0285 19.9843 25.0285 19.8106C25.049 19.5588 25.0695 19.3269 25.1093 19.1148C24.6885 19.0763 24.3089 19.0565 23.9895 19.0565C23.6702 19.0565 23.2892 19.0763 22.8697 19.1148ZM25.9481 18.631C25.9083 20.0041 26.2688 21.3574 26.8486 21.8982C28.1671 23.1943 29.7666 23.368 30.6067 23.368C31.706 23.368 32.7257 23.0194 33.2656 22.4985C34.0058 21.7629 34.2853 18.2837 32.986 16.9106C32.3858 16.2917 31.207 15.8477 29.8077 15.7125C28.4878 15.5959 27.3078 15.7894 26.7883 16.2347C26.3086 16.6204 25.9892 17.5296 25.9481 18.631Z" fill="#56653E" style="fill:#56653E;fill:color(display-p3 0.3371 0.3942 0.2420);fill-opacity:1;"/>
<defs>
<linearGradient id="paint0_linear_1643_6644" x1="24" y1="0" x2="24" y2="48" gradientUnits="userSpaceOnUse">
<stop stop-color="#E7F2D4" style="stop-color:#E7F2D4;stop-color:color(display-p3 0.9041 0.9482 0.8327);stop-opacity:1;"/>
<stop offset="1" stop-color="#E7F2D4" style="stop-color:#E7F2D4;stop-color:color(display-p3 0.9041 0.9482 0.8327);stop-opacity:1;"/>
</linearGradient>
</defs>
</svg>
