<svg width="49" height="48" viewBox="0 0 49 48" fill="none" xmlns="http://www.w3.org/2000/svg">
<rect x="0.499833" y="0.5" width="47" height="47" rx="11.5" transform="matrix(1 0 -0.00033396 1 0.016197 2.98023e-08)" fill="url(#paint0_linear_1643_6618)"/>
<rect x="0.499833" y="0.5" width="47" height="47" rx="11.5" transform="matrix(1 0 -0.00033396 1 0.016197 2.98023e-08)" stroke="#F5F4F5" style="stroke:#F5F4F5;stroke:color(display-p3 0.9600 0.9575 0.9625);stroke-opacity:1;"/>
<path d="M20.2173 11.4956L11.2765 11.4956L11.2765 20.3738L20.2173 20.3738L20.2173 11.4956Z" fill="#56653E" style="fill:#56653E;fill:color(display-p3 0.3371 0.3942 0.2420);fill-opacity:1;"/>
<path d="M30.8129 22.2147L21.8694 22.2147L21.8694 31.0915L30.8129 31.0915L30.8129 22.2147Z" fill="#56653E" style="fill:#56653E;fill:color(display-p3 0.3371 0.3942 0.2420);fill-opacity:1;"/>
<path d="M30.8129 11.4956L21.8694 11.4956L21.8694 20.3738L38.4805 20.3738L38.4805 19.1047C38.4801 18.1039 38.2814 17.1131 37.896 16.1895C37.5105 15.2659 36.9459 14.4278 36.2347 13.7236C34.7923 12.2954 32.8428 11.4947 30.8129 11.4956Z" fill="#56653E" style="fill:#56653E;fill:color(display-p3 0.3371 0.3942 0.2420);fill-opacity:1;"/>
<path d="M11.2738 22.2147L11.2738 31.0915C11.2738 33.11 12.0818 35.0456 13.5182 36.4725C14.9613 37.9014 16.9106 38.7022 18.9414 38.7005L20.2187 38.7005L20.2187 22.2147L11.2738 22.2147Z" fill="#56653E" style="fill:#56653E;fill:color(display-p3 0.3371 0.3942 0.2420);fill-opacity:1;"/>
<path d="M11.2738 11.4956L20.2173 20.3738L11.2738 20.3738L11.2738 11.4956Z" fill="#56653E" style="fill:#56653E;fill:color(display-p3 0.3371 0.3942 0.2420);fill-opacity:1;"/>
<path d="M21.8694 22.2147L30.8129 31.0915L21.8694 31.0915L21.8694 22.2147Z" fill="#56653E" style="fill:#56653E;fill:color(display-p3 0.3371 0.3942 0.2420);fill-opacity:1;"/>
<path d="M11.2738 31.0915C11.2738 33.11 12.0818 35.0456 13.5182 36.4725C14.9613 37.9014 16.9106 38.7022 18.9414 38.7005L20.2187 38.7005L20.2187 22.2147L11.2738 31.0915Z" fill="#56653E" style="fill:#56653E;fill:color(display-p3 0.3371 0.3942 0.2420);fill-opacity:1;"/>
<path d="M30.8129 11.4956C32.8451 11.4956 34.797 12.2981 36.2347 13.7236C36.9459 14.4278 37.5105 15.2659 37.896 16.1895C38.2812 17.1131 38.4789 18.104 38.4791 19.1047L38.4791 20.3738L21.8721 20.3738L30.8129 11.4956Z" fill="#56653E" style="fill:#56653E;fill:color(display-p3 0.3371 0.3942 0.2420);fill-opacity:1;"/>
<defs>
<linearGradient id="paint0_linear_1643_6618" x1="24" y1="0" x2="24" y2="48" gradientUnits="userSpaceOnUse">
<stop stop-color="#E7F2D4" style="stop-color:#E7F2D4;stop-color:color(display-p3 0.9041 0.9482 0.8327);stop-opacity:1;"/>
<stop offset="1" stop-color="#E7F2D4" style="stop-color:#E7F2D4;stop-color:color(display-p3 0.9041 0.9482 0.8327);stop-opacity:1;"/>
</linearGradient>
</defs>
</svg>
