<svg width="49" height="48" viewBox="0 0 49 48" fill="none" xmlns="http://www.w3.org/2000/svg">
<rect x="0.499833" y="0.5" width="47" height="47" rx="11.5" transform="matrix(1 0 -0.00033396 1 0.016197 2.98023e-08)" fill="url(#paint0_linear_1643_6641)"/>
<rect x="0.499833" y="0.5" width="47" height="47" rx="11.5" transform="matrix(1 0 -0.00033396 1 0.016197 2.98023e-08)" stroke="#F5F4F5" style="stroke:#F5F4F5;stroke:color(display-p3 0.9600 0.9575 0.9625);stroke-opacity:1;"/>
<path d="M9.14494 28.3975C9.14494 27.8235 9.8633 27.5352 10.2835 27.9415L13.3404 30.898C13.7606 31.3043 13.4631 31.9989 12.8688 31.9989L9.81194 31.9989C9.63504 31.9989 9.46539 31.931 9.3403 31.81C9.21521 31.6891 9.14494 31.525 9.14494 31.354L9.14494 28.3975ZM9.14494 25.2837C9.14487 25.3685 9.16209 25.4525 9.19563 25.5308C9.22916 25.6092 9.27835 25.6804 9.34037 25.7403L15.6176 31.8093C15.6794 31.8693 15.7529 31.9169 15.8338 31.9495C15.9147 31.982 16.0015 31.9988 16.0891 31.9989L19.5375 31.9989C20.1312 31.9989 20.4293 31.3043 20.0091 30.898L10.2842 21.4946C9.8633 21.0877 9.14494 21.3753 9.14494 21.9493L9.14494 25.2837ZM9.14494 18.8362C9.14497 19.0072 9.21527 19.1712 9.34037 19.2921L22.2849 31.8106C22.41 31.9316 22.5796 31.9995 22.7565 31.9996L26.2049 31.9996C26.7986 31.9996 27.0967 31.3043 26.6765 30.898L10.2835 15.0464C9.8633 14.6401 9.14494 14.9278 9.14494 15.5024L9.14494 18.8362ZM15.813 18.8362C15.813 19.0072 15.8833 19.1712 16.0084 19.2921L28.0105 30.898C28.4307 31.3043 29.1491 31.016 29.1491 30.4414L29.1491 27.1076C29.149 26.9366 29.0787 26.7726 28.9537 26.6516L16.9516 15.0464C16.5313 14.6401 15.813 14.9278 15.813 15.5024L15.813 18.8362ZM23.6196 15.0464C23.1994 14.6401 22.481 14.9278 22.481 15.5024L22.481 18.8368C22.4812 19.0076 22.5515 19.1714 22.6765 19.2921L28.0105 24.4504C28.4307 24.8568 29.1491 24.5685 29.1491 23.9938L29.1491 20.6601C29.149 20.489 29.0787 20.325 28.9536 20.2041L23.6196 15.0464ZM37.5093 28.4769L31.2308 22.4059C30.8106 21.9996 30.0922 22.2873 30.0922 22.8619L30.0922 31.354C30.0922 31.525 30.1625 31.6891 30.2876 31.81C30.4127 31.931 30.5823 31.9989 30.7592 31.9989L40.4842 31.9989C40.6611 31.9989 40.8307 31.931 40.9558 31.81C41.0809 31.6891 41.1512 31.525 41.1512 31.354L41.1512 30.58C41.1512 30.224 40.8517 29.9396 40.4862 29.8938C39.3594 29.752 38.3127 29.2538 37.5093 28.4769ZM33.2932 29.9357C33.0101 29.9357 32.7387 29.827 32.5386 29.6335C32.3384 29.44 32.226 29.1775 32.226 28.9038C32.226 28.6301 32.3384 28.3677 32.5386 28.1741C32.7387 27.9806 33.0101 27.8719 33.2932 27.8719C33.5762 27.8719 33.8477 27.9806 34.0478 28.1741C34.248 28.3677 34.3604 28.6301 34.3604 28.9038C34.3604 29.1775 34.248 29.44 34.0478 29.6335C33.8477 29.827 33.5762 29.9357 33.2932 29.9357Z" fill="#56653E" style="fill:#56653E;fill:color(display-p3 0.3371 0.3942 0.2420);fill-opacity:1;"/>
<defs>
<linearGradient id="paint0_linear_1643_6641" x1="24" y1="0" x2="24" y2="48" gradientUnits="userSpaceOnUse">
<stop stop-color="#E7F2D4" style="stop-color:#E7F2D4;stop-color:color(display-p3 0.9041 0.9482 0.8327);stop-opacity:1;"/>
<stop offset="1" stop-color="#E7F2D4" style="stop-color:#E7F2D4;stop-color:color(display-p3 0.9041 0.9482 0.8327);stop-opacity:1;"/>
</linearGradient>
</defs>
</svg>
