<svg width="49" height="48" viewBox="0 0 49 48" fill="none" xmlns="http://www.w3.org/2000/svg">
<rect x="0.499857" y="0.5" width="47" height="47" rx="11.5" transform="matrix(1 0 -0.000285275 1 0.0157676 0)" fill="url(#paint0_linear_1643_6617)"/>
<rect x="0.499857" y="0.5" width="47" height="47" rx="11.5" transform="matrix(1 0 -0.000285275 1 0.0157676 0)" stroke="#F5F4F5" style="stroke:#F5F4F5;stroke:color(display-p3 0.9600 0.9575 0.9625);stroke-opacity:1;"/>
<path d="M11.2807 30.8793C10.9979 31.3406 10.6802 31.8759 10.4104 32.3023C10.2943 32.4985 10.2598 32.7324 10.3143 32.9537C10.3688 33.175 10.508 33.3661 10.7019 33.486L16.3591 36.9674C16.4574 37.0281 16.5669 37.0686 16.681 37.0866C16.7951 37.1046 16.9117 37.0997 17.0239 37.0721C17.1361 37.0446 17.2417 36.995 17.3346 36.9262C17.4274 36.8574 17.5056 36.7708 17.5646 36.6715C17.7909 36.2928 18.0824 35.8011 18.4001 35.2745C20.6412 31.5756 22.8954 32.0282 26.9599 33.969L32.5693 36.6366C32.6744 36.6866 32.7886 36.7151 32.9049 36.7202C33.0212 36.7253 33.1374 36.7071 33.2466 36.6665C33.3557 36.6259 33.4556 36.5639 33.5404 36.484C33.6251 36.4041 33.6929 36.308 33.7399 36.2014L36.4336 30.1091C36.5251 29.8999 36.5307 29.6632 36.4493 29.4499C36.3679 29.2367 36.206 29.0639 35.9985 28.9689C34.8148 28.4119 32.4606 27.3022 30.3412 26.2796C22.717 22.5762 16.2373 22.8156 11.2807 30.8793Z" fill="#56653E" style="fill:#56653E;fill:color(display-p3 0.3371 0.3942 0.2420);fill-opacity:1;"/>
<path d="M36.6474 17.0532C36.9302 16.5919 37.2479 16.0566 37.5177 15.6302C37.6338 15.434 37.6683 15.2001 37.6138 14.9788C37.5592 14.7574 37.42 14.5663 37.2261 14.4465L31.5689 10.9651C31.4698 10.8984 31.3581 10.8528 31.2407 10.8311C31.1233 10.8094 31.0027 10.8122 30.8863 10.8391C30.77 10.866 30.6605 10.9166 30.5645 10.9877C30.4686 11.0588 30.3883 11.1489 30.3287 11.2523C30.1024 11.6309 29.8109 12.1227 29.4931 12.6492C27.252 16.3481 24.9978 15.8957 20.9333 13.9547L15.3414 11.3002C15.2362 11.2501 15.1221 11.2217 15.0058 11.2166C14.8894 11.2114 14.7732 11.2297 14.6641 11.2703C14.5549 11.3108 14.455 11.3729 14.3703 11.4528C14.2856 11.5327 14.2177 11.6287 14.1708 11.7353L11.477 17.8278C11.3855 18.0369 11.3799 18.2736 11.4613 18.4869C11.5427 18.7001 11.7046 18.8728 11.9121 18.9679C13.0958 19.525 15.4501 20.6346 17.5693 21.6573C25.2109 25.3563 31.6908 25.1082 36.6474 17.0532Z" fill="#56653E" style="fill:#56653E;fill:color(display-p3 0.3371 0.3942 0.2420);fill-opacity:1;"/>
<defs>
<linearGradient id="paint0_linear_1643_6617" x1="24" y1="0" x2="24" y2="48" gradientUnits="userSpaceOnUse">
<stop stop-color="#E7F2D4" style="stop-color:#E7F2D4;stop-color:color(display-p3 0.9041 0.9482 0.8327);stop-opacity:1;"/>
<stop offset="1" stop-color="#E7F2D4" style="stop-color:#E7F2D4;stop-color:color(display-p3 0.9041 0.9482 0.8327);stop-opacity:1;"/>
</linearGradient>
</defs>
</svg>
