<svg width="49" height="49" viewBox="0 0 49 49" fill="none" xmlns="http://www.w3.org/2000/svg">
<rect x="0.500132" y="0.5" width="47.0473" height="47.0473" rx="11.5" transform="matrix(1 0 0.000264314 1 -0.000132157 2.98023e-08)" fill="url(#paint0_linear_1643_6625)"/>
<rect x="0.500132" y="0.5" width="47.0473" height="47.0473" rx="11.5" transform="matrix(1 0 0.000264314 1 -0.000132157 2.98023e-08)" stroke="#F5F4F5" style="stroke:#F5F4F5;stroke:color(display-p3 0.9600 0.9575 0.9625);stroke-opacity:1;"/>
<g clip-path="url(#clip0_1643_6625)">
<path fill-rule="evenodd" clip-rule="evenodd" d="M35.7833 16.6419L24.5644 10.1658C24.3873 10.0634 24.1863 10.0095 23.9816 10.0095C23.777 10.0095 23.576 10.0634 23.3989 10.1658L12.1767 16.6421C12.028 16.7282 11.9046 16.8519 11.8188 17.0007C11.7329 17.1495 11.6877 17.3182 11.6875 17.49L11.6875 30.5541C11.6875 30.9044 11.8743 31.2278 12.178 31.4032L23.3978 37.8816C23.575 37.9837 23.7761 38.0375 23.9807 38.0375C24.1853 38.0375 24.3863 37.9837 24.5635 37.8816L35.7846 31.4032C35.9337 31.3172 36.0575 31.1934 36.1436 31.0444C36.2297 30.8953 36.2751 30.7262 36.2751 30.5541L36.2751 17.4908C36.2748 17.3189 36.2294 17.1501 36.1433 17.0013C36.0572 16.8525 35.9335 16.7289 35.7846 16.643L35.7833 16.6419ZM35.0791 18.0153L24.2469 36.7764C24.1731 36.9026 23.9804 36.8511 23.9804 36.7053L23.9804 24.4198C23.9802 24.299 23.9482 24.1805 23.8878 24.076C23.8273 23.9715 23.7405 23.8846 23.636 23.8242L12.9965 17.6811C12.8714 17.6086 12.9229 17.4148 13.0687 17.4148H34.7332C35.0417 17.4148 35.2333 17.749 35.0791 18.0153Z" fill="#56653E" style="fill:#56653E;fill:color(display-p3 0.3371 0.3942 0.2420);fill-opacity:1;"/>
</g>
<defs>
<linearGradient id="paint0_linear_1643_6625" x1="24.0236" y1="0" x2="24.0236" y2="48.0473" gradientUnits="userSpaceOnUse">
<stop stop-color="#E7F2D4" style="stop-color:#E7F2D4;stop-color:color(display-p3 0.9041 0.9482 0.8327);stop-opacity:1;"/>
<stop offset="1" stop-color="#E7F2D4" style="stop-color:#E7F2D4;stop-color:color(display-p3 0.9041 0.9482 0.8327);stop-opacity:1;"/>
</linearGradient>
<clipPath id="clip0_1643_6625">
<rect width="28.0276" height="28.0276" fill="white" style="fill:white;fill-opacity:1;" transform="translate(9.96875 10.0098)"/>
</clipPath>
</defs>
</svg>
