<svg width="49" height="48" viewBox="0 0 49 48" fill="none" xmlns="http://www.w3.org/2000/svg">
<rect x="0.500132" y="0.5" width="47" height="47" rx="11.5" transform="matrix(1 0 0.000264314 1 -0.000132157 2.98023e-08)" fill="url(#paint0_linear_1643_6630)"/>
<rect x="0.500132" y="0.5" width="47" height="47" rx="11.5" transform="matrix(1 0 0.000264314 1 -0.000132157 2.98023e-08)" stroke="#F5F4F5" style="stroke:#F5F4F5;stroke:color(display-p3 0.9600 0.9575 0.9625);stroke-opacity:1;"/>
<path d="M23.3257 38.7711L22.6064 38.2242L22.2035 37.3317L22.6057 35.5469L23.0654 33.2439L23.4388 31.4015L23.7834 29.1273L23.9845 28.3788L23.9558 28.3213L23.8119 28.3501L22.0867 30.7106L19.47 34.2515L17.3995 36.4393L16.9106 36.6409L16.0475 36.209L16.1336 35.403L16.6224 34.7121L19.4692 31.0561L21.1945 28.7819L22.3159 27.4864L22.2871 27.3137L22.2296 27.3137L14.637 32.2652L13.2851 32.4379L12.6809 31.8909L12.767 30.9985L13.0545 30.7106L15.3265 29.1273L20.9924 25.9607L21.0786 25.6728L20.9923 25.5289L20.7046 25.5289L19.7554 25.4713L16.5337 25.3849L13.7435 25.2698L11.0108 25.1259L10.3204 24.9819L9.68733 24.1183L9.74475 23.6865L10.3199 23.3122L11.1541 23.3698L12.9664 23.5138L15.699 23.6865L17.6838 23.8016L20.6179 24.1183L21.0782 24.1183L21.1356 23.9168L20.9918 23.8016L20.8767 23.6865L18.0285 21.7865L14.9789 19.7714L13.3678 18.5911L12.5047 17.9866L12.073 17.4396L11.9001 16.2305L12.6766 15.3669L13.7409 15.4533L13.9998 15.5108L15.0643 16.3457L17.3372 18.1017L20.3293 20.3183L20.7608 20.6638L20.9622 20.5486L20.9621 20.4623L20.7607 20.1456L19.1491 17.2093L17.4224 14.2154L16.6455 12.9775L16.4439 12.2291C16.3637 11.9483 16.3248 11.6574 16.3286 11.3654L17.22 10.1564L17.709 9.98364L18.9171 10.1564L19.4062 10.5882L20.1546 12.2866L21.3346 14.9639L23.2053 18.5911L23.7521 19.685L24.04 20.6638L24.1552 20.9805L24.3565 20.9805L24.3565 20.8077L24.4998 18.735L24.7867 16.2305L25.0735 13.0063L25.1596 12.0851L25.6195 10.9912L26.5111 10.4155L27.2015 10.7321L27.777 11.567L27.6909 12.0851L27.3751 14.3018L26.6856 17.7851L26.2548 20.1456L26.5137 20.1456L26.8012 19.829L27.9802 18.2744L29.9643 15.7987L30.827 14.8199L31.8622 13.726L32.5237 13.2078L33.7605 13.2078L34.6526 14.5609L34.2503 15.9714L32.9851 17.5835L31.9211 18.9365L30.3971 20.9805L29.4771 22.6213L29.5634 22.7365L29.7648 22.7365L33.1876 21.988L35.0572 21.6714L37.2432 21.2971L38.2501 21.7577L38.3653 22.2183L37.9628 23.1971L35.6043 23.7728L32.843 24.3198L28.7299 25.2986L28.6724 25.3274L28.7299 25.4137L30.5709 25.5865L31.3764 25.644L33.3324 25.644L36.9568 25.9031L37.9062 26.5364L38.4529 27.2849L38.3668 27.8895L36.9 28.6091L34.9438 28.1485L30.3412 27.0546L28.7878 26.6804L28.5577 26.6804L28.5577 26.7955L29.8812 28.091L32.2693 30.25L35.2903 33.0424L35.4343 33.7333L35.0605 34.3091L34.6578 34.2515L32.0109 32.2364L30.9752 31.344L28.6735 29.4152L28.5296 29.4152L28.5297 29.6167L29.0477 30.394L31.8677 34.6257L32.0119 35.9212L31.8107 36.3242L31.0628 36.5833L30.2861 36.4393L28.6172 34.1363L26.9194 31.5167L25.538 29.1849L25.3943 29.3L24.5624 37.9939L24.1885 38.4257L23.3257 38.7711Z" fill="#56653E" style="fill:#56653E;fill:color(display-p3 0.3371 0.3942 0.2420);fill-opacity:1;"/>
<defs>
<linearGradient id="paint0_linear_1643_6630" x1="24" y1="0" x2="24" y2="48" gradientUnits="userSpaceOnUse">
<stop stop-color="#E7F2D4" style="stop-color:#E7F2D4;stop-color:color(display-p3 0.9041 0.9482 0.8327);stop-opacity:1;"/>
<stop offset="1" stop-color="#E7F2D4" style="stop-color:#E7F2D4;stop-color:color(display-p3 0.9041 0.9482 0.8327);stop-opacity:1;"/>
</linearGradient>
</defs>
</svg>
