<svg width="49" height="48" viewBox="0 0 49 48" fill="none" xmlns="http://www.w3.org/2000/svg">
<rect x="0.499844" y="0.5" width="47" height="47" rx="11.5" transform="matrix(1 0 -0.000312585 1 0.0157813 2.98023e-08)" fill="url(#paint0_linear_1643_6627)"/>
<rect x="0.499844" y="0.5" width="47" height="47" rx="11.5" transform="matrix(1 0 -0.000312585 1 0.0157813 2.98023e-08)" stroke="#F5F4F5" style="stroke:#F5F4F5;stroke:color(display-p3 0.9600 0.9575 0.9625);stroke-opacity:1;"/>
<path d="M39.0506 30.4755L28.7908 11.2179C27.8955 9.53794 25.4813 9.58234 24.6461 11.2935L22.1212 16.3767C21.8152 17.0019 21.9567 17.2251 22.2108 17.5887C22.4146 17.8803 22.8859 17.9031 23.0779 17.6043C23.1207 17.537 23.1807 17.4824 23.2518 17.4461C23.3228 17.4099 23.4023 17.3933 23.4818 17.3982C23.5614 17.4031 23.6382 17.4293 23.7043 17.474C23.7703 17.5187 23.8232 17.5803 23.8574 17.6523L30.4515 31.3863C30.6956 31.9363 31.0766 32.4143 31.5582 32.7746C32.0398 33.135 32.6058 33.3656 33.202 33.4443L36.693 33.8907C38.5721 34.1379 39.9447 32.1507 39.0506 30.4755ZM25.3976 31.8027L19.5936 15.0567C18.9489 13.1967 16.2445 13.2771 15.7151 15.1719L13.9454 21.4995C13.7448 22.2171 13.668 22.6335 13.9448 23.3259L14.6164 23.3259L17.0533 31.1259C17.2429 31.5938 17.532 32.0147 17.9005 32.3596C18.269 32.7044 18.7081 32.9648 19.1874 33.1227L22.8232 34.3347C24.4181 34.8663 25.9404 33.3699 25.3976 31.8027ZM9.50951 20.6043L8.52343 29.1363C8.42242 30.0123 8.75555 30.8811 9.41737 31.4643L11.8512 33.6123C12.6857 34.3491 13.9811 33.6315 13.8028 32.5335L11.8529 20.5491C11.6315 19.1931 9.66704 19.2387 9.50951 20.6043Z" fill="#56653E" style="fill:#56653E;fill:color(display-p3 0.3371 0.3942 0.2420);fill-opacity:1;"/>
<defs>
<linearGradient id="paint0_linear_1643_6627" x1="24" y1="0" x2="24" y2="48" gradientUnits="userSpaceOnUse">
<stop stop-color="#E7F2D4" style="stop-color:#E7F2D4;stop-color:color(display-p3 0.9041 0.9482 0.8327);stop-opacity:1;"/>
<stop offset="1" stop-color="#E7F2D4" style="stop-color:#E7F2D4;stop-color:color(display-p3 0.9041 0.9482 0.8327);stop-opacity:1;"/>
</linearGradient>
</defs>
</svg>
