<svg width="49" height="49" viewBox="0 0 49 49" fill="none" xmlns="http://www.w3.org/2000/svg">
<rect x="0.500132" y="0.5" width="47.0473" height="47.0473" rx="11.5" transform="matrix(1 0 0.000264314 1 -0.000132157 2.98023e-08)" fill="url(#paint0_linear_1643_6619)"/>
<rect x="0.500132" y="0.5" width="47.0473" height="47.0473" rx="11.5" transform="matrix(1 0 0.000264314 1 -0.000132157 2.98023e-08)" stroke="#F5F4F5" style="stroke:#F5F4F5;stroke:color(display-p3 0.9600 0.9575 0.9625);stroke-opacity:1;"/>
<g clip-path="url(#clip0_1643_6619)">
<path d="M21.1036 36.465L21.1036 32.9616H25.8715L25.8715 36.4961C30.2792 35.4829 33.5588 31.6472 33.5588 27.0707C33.5588 23.3462 30.8108 18.1054 27.6243 16.4838C28.0529 17.938 27.4094 19.8332 26.5522 19.6671C26.2292 19.6049 26.1956 19.1138 26.1435 18.3204C26.0342 16.6595 25.8379 13.6722 22.6899 10.5344C22.4389 12.7259 18.8263 17.1901 16.476 20.0961C16.1808 20.4597 15.8868 20.8242 15.5938 21.1894C14.2595 22.8814 13.5378 24.9471 13.5391 27.0708C13.5297 31.4981 16.6447 35.3671 21.1036 36.4663L21.1036 36.465ZM26.1982 29.022C26.1993 29.3589 26.1315 29.6926 25.9985 30.0042C25.8655 30.3159 25.6699 30.5992 25.4231 30.8381C25.1762 31.077 24.8828 31.2668 24.5596 31.3966C24.2364 31.5264 23.8898 31.5937 23.5396 31.5946C23.1894 31.5937 22.8428 31.5264 22.5197 31.3966C22.1965 31.2668 21.9031 31.077 21.6562 30.8381C21.4093 30.5992 21.2138 30.3159 21.0808 30.0042C20.9478 29.6926 20.8799 29.3589 20.8811 29.022C20.8811 28.4353 21.091 27.8832 21.4277 27.4602L21.6613 27.1699C22.2861 26.398 23.2452 25.2126 23.3123 24.6308C25.2913 25.9165 26.1982 28.0326 26.1982 29.022Z" fill="#56653E" style="fill:#56653E;fill:color(display-p3 0.3371 0.3942 0.2420);fill-opacity:1;"/>
</g>
<defs>
<linearGradient id="paint0_linear_1643_6619" x1="24.0236" y1="0" x2="24.0236" y2="48.0473" gradientUnits="userSpaceOnUse">
<stop stop-color="#E7F2D4" style="stop-color:#E7F2D4;stop-color:color(display-p3 0.9041 0.9482 0.8327);stop-opacity:1;"/>
<stop offset="1" stop-color="#E7F2D4" style="stop-color:#E7F2D4;stop-color:color(display-p3 0.9041 0.9482 0.8327);stop-opacity:1;"/>
</linearGradient>
<clipPath id="clip0_1643_6619">
<rect width="20.0197" height="26.0256" fill="white" style="fill:white;fill-opacity:1;" transform="translate(13.5391 10.5344)"/>
</clipPath>
</defs>
</svg>
