<svg width="49" height="49" viewBox="0 0 49 49" fill="none" xmlns="http://www.w3.org/2000/svg">
<rect x="0.500132" y="0.5" width="47.0473" height="47.0473" rx="11.5" transform="matrix(1 0 0.000264314 1 -0.000132157 2.98023e-08)" fill="url(#paint0_linear_1643_6623)"/>
<rect x="0.500132" y="0.5" width="47.0473" height="47.0473" rx="11.5" transform="matrix(1 0 0.000264314 1 -0.000132157 2.98023e-08)" stroke="#F5F4F5" style="stroke:#F5F4F5;stroke:color(display-p3 0.9600 0.9575 0.9625);stroke-opacity:1;"/>
<g clip-path="url(#clip0_1643_6623)">
<path d="M37.4708 15.9283C37.1367 15.9278 36.8057 15.9932 36.4968 16.1208C36.188 16.2483 35.9073 16.4355 35.6708 16.6717C35.4344 16.9078 35.2468 17.1882 35.1188 17.4969C34.9908 17.8056 34.925 18.1364 34.925 18.4706L34.925 24.1544C34.9219 24.6985 34.7044 25.2195 34.3196 25.6043C33.9348 25.9891 33.4138 26.2066 32.8696 26.2097C32.5327 26.2075 32.2011 26.1253 31.9022 25.9698C31.6033 25.8142 31.3457 25.5899 31.1506 25.3152L25.3454 17.0237C25.1081 16.6832 24.7919 16.4053 24.4238 16.2138C24.0556 16.0222 23.6466 15.9226 23.2316 15.9236C21.9073 15.9236 20.7162 17.0494 20.7162 18.4379L20.7162 24.1555C20.7162 25.2906 19.7854 26.2109 18.6608 26.2109C17.9951 26.2109 17.3342 25.8757 16.9418 25.3163L10.4452 16.0369C10.4134 15.9911 10.3678 15.9566 10.3151 15.9386C10.2624 15.9205 10.2052 15.9198 10.152 15.9365C10.0988 15.9531 10.0524 15.9864 10.0194 16.0313C9.98644 16.0763 9.96869 16.1306 9.96875 16.1863L9.96875 21.1437C9.96875 21.3948 10.0458 21.6377 10.1883 21.8444L16.5821 30.9744C16.9605 31.5139 17.5163 31.9145 18.1598 32.0605C18.5288 32.1446 18.9119 32.1448 19.281 32.061C19.65 31.9772 19.9955 31.8117 20.292 31.5765C20.5885 31.3413 20.8284 31.0425 20.994 30.7022C21.1596 30.362 21.2466 29.9888 21.2487 29.6104L21.2487 23.8963C21.2487 22.7612 22.1678 21.8409 23.304 21.8409H23.3064C23.6437 21.8412 23.9759 21.9226 24.2751 22.0783C24.5743 22.234 24.8316 22.4594 25.0254 22.7355L30.8318 31.027C31.1377 31.4706 31.577 31.8053 32.0859 31.9825C32.5948 32.1597 33.147 32.1702 33.6623 32.0125C34.1776 31.8548 34.6293 31.537 34.9518 31.1053C35.2744 30.6736 35.4511 30.1504 35.4563 29.6116L35.4563 23.8951C35.4563 23.35 35.6729 22.8272 36.0583 22.4417C36.4438 22.0563 36.9666 21.8397 37.5117 21.8397H37.7394C37.8075 21.8397 37.8729 21.8127 37.9211 21.7645C37.9693 21.7163 37.9963 21.651 37.9963 21.5828L37.9963 16.1852C37.9963 16.117 37.9693 16.0517 37.9211 16.0035C37.8729 15.9553 37.8075 15.9283 37.7394 15.9283H37.4708Z" fill="#56653E" style="fill:#56653E;fill:color(display-p3 0.3371 0.3942 0.2420);fill-opacity:1;"/>
</g>
<defs>
<linearGradient id="paint0_linear_1643_6623" x1="24.0236" y1="0" x2="24.0236" y2="48.0473" gradientUnits="userSpaceOnUse">
<stop stop-color="#E7F2D4" style="stop-color:#E7F2D4;stop-color:color(display-p3 0.9041 0.9482 0.8327);stop-opacity:1;"/>
<stop offset="1" stop-color="#E7F2D4" style="stop-color:#E7F2D4;stop-color:color(display-p3 0.9041 0.9482 0.8327);stop-opacity:1;"/>
</linearGradient>
<clipPath id="clip0_1643_6623">
<rect width="28.0276" height="28.0276" fill="white" style="fill:white;fill-opacity:1;" transform="translate(9.96875 10.0098)"/>
</clipPath>
</defs>
</svg>
