<svg width="49" height="49" viewBox="0 0 49 49" fill="none" xmlns="http://www.w3.org/2000/svg">
<rect x="0.500132" y="0.5" width="47.0473" height="47.0473" rx="11.5" transform="matrix(1 0 0.000264314 1 -0.000132157 2.98023e-08)" fill="url(#paint0_linear_1643_6624)"/>
<rect x="0.500132" y="0.5" width="47.0473" height="47.0473" rx="11.5" transform="matrix(1 0 0.000264314 1 -0.000132157 2.98023e-08)" stroke="#F5F4F5" style="stroke:#F5F4F5;stroke:color(display-p3 0.9600 0.9575 0.9625);stroke-opacity:1;"/>
<path d="M30.1058 29.614L30.1058 18.4205L22.7486 24.0085M12.0105 20.6452C11.8308 20.4536 11.7294 20.2018 11.7261 19.9392C11.7229 19.6765 11.8181 19.4222 11.993 19.2263L13.4644 17.86C13.7097 17.6322 14.3052 17.5446 14.7432 17.86L18.9298 21.0656L28.6519 12.1493C29.0372 11.764 29.7204 11.5888 30.4912 12.0092L35.396 14.3565C35.8339 14.6193 36.2543 15.0222 36.2543 15.7754L36.2543 32.3993C36.2543 32.8897 35.904 33.4153 35.5186 33.6255L30.1233 36.218C29.7379 36.3757 29.0022 36.218 28.7394 35.9728L18.9123 26.9864L14.7432 30.1921C14.2702 30.5074 13.6921 30.4198 13.4469 30.1921L11.9755 28.8433C11.5901 28.4404 11.6251 27.7747 12.0455 27.3718L15.7241 24.0435" fill="#56653E" style="fill:#56653E;fill:color(display-p3 0.3371 0.3942 0.2420);fill-opacity:1;"/>
<defs>
<linearGradient id="paint0_linear_1643_6624" x1="24.0236" y1="0" x2="24.0236" y2="48.0473" gradientUnits="userSpaceOnUse">
<stop stop-color="#E7F2D4" style="stop-color:#E7F2D4;stop-color:color(display-p3 0.9041 0.9482 0.8327);stop-opacity:1;"/>
<stop offset="1" stop-color="#E7F2D4" style="stop-color:#E7F2D4;stop-color:color(display-p3 0.9041 0.9482 0.8327);stop-opacity:1;"/>
</linearGradient>
</defs>
</svg>
