<svg width="49" height="48" viewBox="0 0 49 48" fill="none" xmlns="http://www.w3.org/2000/svg">
<rect x="0.499844" y="0.5" width="47" height="47" rx="11.5" transform="matrix(1 0 -0.000312585 1 0.0157813 2.98023e-08)" fill="url(#paint0_linear_1643_6620)"/>
<rect x="0.499844" y="0.5" width="47" height="47" rx="11.5" transform="matrix(1 0 -0.000312585 1 0.0157813 2.98023e-08)" stroke="#F5F4F5" style="stroke:#F5F4F5;stroke:color(display-p3 0.9600 0.9575 0.9625);stroke-opacity:1;"/>
<path d="M17.4397 22.2701L21.0753 22.2701C20.1674 21.7226 19.8275 20.9551 19.3716 19.5323L18.0076 14.6583C17.3838 12.4682 16.8718 11.427 14.372 11.427L9.14884 11.427L9.14884 12.7419L9.88882 12.7419C11.4205 12.7419 11.5926 13.2895 12.0487 14.9322L13.2404 19.2047C13.8643 21.287 14.8324 22.2701 17.444 22.2701L17.4397 22.2701ZM25.8466 22.2701L29.4823 22.2701C32.0939 22.2701 33.0018 21.2829 33.6299 19.2047L34.8217 14.9322C35.2778 13.2895 35.5014 12.7419 36.9815 12.7419L37.7215 12.7419L37.7215 11.427L32.5543 11.427C29.9986 11.427 29.4866 12.4142 28.9187 14.6583L27.5549 19.5323C27.0988 21.009 26.7545 21.7226 25.8466 22.2701ZM21.0753 26.8702L25.8466 26.8702L25.8466 22.2701L21.0753 22.2701L21.0753 26.8702ZM9.14885 37.7134L14.372 37.7134C16.8718 37.7134 17.3838 36.6722 18.0076 34.482L19.3716 29.6081C19.8275 28.1853 20.1674 27.4178 21.0753 26.8702L17.4397 26.8702C14.828 26.8702 13.8599 27.8575 13.2361 29.9357L12.0444 34.2082C11.5883 35.8508 11.4205 36.3985 9.88451 36.3985L9.14453 36.3985L9.14453 37.7134L9.14885 37.7134ZM32.5457 37.7134L37.7129 37.7134L37.7129 36.3985L36.9729 36.3985C35.4971 36.3985 35.2692 35.8508 34.8131 34.2082L33.6213 29.9357C32.9975 27.8534 32.0896 26.8702 29.4737 26.8702L25.8466 26.8702C26.7545 27.4178 27.0858 28.1314 27.5419 29.6081L28.9057 34.482C29.4737 36.7261 29.9857 37.7134 32.5414 37.7134L32.5457 37.7134Z" fill="#56653E" style="fill:#56653E;fill:color(display-p3 0.3371 0.3942 0.2420);fill-opacity:1;"/>
<defs>
<linearGradient id="paint0_linear_1643_6620" x1="24" y1="0" x2="24" y2="48" gradientUnits="userSpaceOnUse">
<stop stop-color="#E7F2D4" style="stop-color:#E7F2D4;stop-color:color(display-p3 0.9041 0.9482 0.8327);stop-opacity:1;"/>
<stop offset="1" stop-color="#E7F2D4" style="stop-color:#E7F2D4;stop-color:color(display-p3 0.9041 0.9482 0.8327);stop-opacity:1;"/>
</linearGradient>
</defs>
</svg>
