<svg width="49" height="48" viewBox="0 0 49 48" fill="none" xmlns="http://www.w3.org/2000/svg">
<rect x="0.499833" y="0.5" width="47" height="47" rx="11.5" transform="matrix(1 0 -0.000333974 1 0.0161977 2.98023e-08)" fill="url(#paint0_linear_1643_6632)"/>
<rect x="0.499833" y="0.5" width="47" height="47" rx="11.5" transform="matrix(1 0 -0.000333974 1 0.0161977 2.98023e-08)" stroke="#F5F4F5" style="stroke:#F5F4F5;stroke:color(display-p3 0.9600 0.9575 0.9625);stroke-opacity:1;"/>
<path d="M34.3013 14.4787C32.3534 13.573 30.2927 12.9295 28.1736 12.5652C27.9097 13.0394 27.6013 13.6772 27.3886 14.1846C25.1039 13.8432 22.8402 13.8432 20.5975 14.1846C20.3849 13.6773 20.0696 13.0394 19.8032 12.5652C17.682 12.9297 15.6196 13.5748 13.6708 14.4834C9.79284 20.3068 8.74156 25.9853 9.26714 31.5835C11.8393 33.4922 14.3319 34.6517 16.7825 35.4105C17.3916 34.5782 17.93 33.6971 18.3921 32.7761C17.5122 32.4433 16.664 32.033 15.8575 31.5503C16.0697 31.394 16.2769 31.2311 16.4789 31.0618C21.366 33.3333 26.6761 33.3333 31.505 31.0618C31.7078 31.23 31.915 31.3928 32.1263 31.5503C31.3185 32.0343 30.4687 32.4454 29.587 32.7785C30.0518 33.7032 30.5892 34.5852 31.1966 35.4128C33.6496 34.6541 36.1445 33.4946 38.7166 31.5835C39.3334 25.0939 37.6632 19.4675 34.3013 14.4787ZM19.058 28.1407C17.5909 28.1407 16.3877 26.7797 16.3877 25.1224C16.3877 23.465 17.5652 22.1017 19.058 22.1017C20.5507 22.1017 21.7539 23.4626 21.7282 25.1224C21.7306 26.7797 20.5508 28.1407 19.058 28.1407ZM28.9258 28.1407C27.4587 28.1407 26.2557 26.7797 26.2557 25.1224C26.2557 23.465 27.4331 22.1017 28.9258 22.1017C30.4187 22.1017 31.6217 23.4626 31.5961 25.1224C31.5961 26.7797 30.4187 28.1407 28.9258 28.1407Z" fill="#56653E" style="fill:#56653E;fill:color(display-p3 0.3371 0.3942 0.2420);fill-opacity:1;"/>
<defs>
<linearGradient id="paint0_linear_1643_6632" x1="24" y1="0" x2="24" y2="48" gradientUnits="userSpaceOnUse">
<stop stop-color="#E7F2D4" style="stop-color:#E7F2D4;stop-color:color(display-p3 0.9041 0.9482 0.8327);stop-opacity:1;"/>
<stop offset="1" stop-color="#E7F2D4" style="stop-color:#E7F2D4;stop-color:color(display-p3 0.9041 0.9482 0.8327);stop-opacity:1;"/>
</linearGradient>
</defs>
</svg>
