<svg width="48" height="48" viewBox="0 0 48 48" fill="none" xmlns="http://www.w3.org/2000/svg">
<rect x="0.5" y="0.5" width="47" height="47" rx="11.5" fill="url(#paint0_linear_1643_6642)"/>
<rect x="0.5" y="0.5" width="47" height="47" rx="11.5" stroke="#F5F4F5" style="stroke:#F5F4F5;stroke:color(display-p3 0.9600 0.9575 0.9625);stroke-opacity:1;"/>
<path d="M28.4668 10.0732L12.0645 11.2841C10.7416 11.3983 10.2812 12.2643 10.2812 13.3004V31.2815C10.2812 32.0891 10.568 32.7791 11.2591 33.7033L15.1146 38.716C15.7475 39.5237 16.3244 39.6962 17.5331 39.6391L36.5811 38.4864C38.1918 38.3722 38.6534 37.6216 38.6534 36.3536V16.1244C38.6534 15.4698 38.394 15.2801 37.6321 14.7215L37.5018 14.6267L32.2663 10.938C30.9994 10.0161 30.4819 9.90068 28.4668 10.0732ZM17.9649 15.7931C16.409 15.8982 16.056 15.9222 15.1729 15.2036L12.927 13.4169C12.6985 13.1862 12.8139 12.8971 13.3885 12.84L29.1568 11.6885C30.4808 11.572 31.1697 12.0335 31.6883 12.4368L34.3923 14.3959C34.5077 14.4542 34.7956 14.7992 34.4494 14.7992L18.1659 15.7794L17.9649 15.7931ZM16.1508 36.1823V19.0077C16.1508 18.2572 16.3815 17.911 17.0715 17.8539L35.7734 16.7584C36.4074 16.7013 36.6942 17.1045 36.6942 17.8539V34.9119C36.6942 35.6613 36.5788 36.2965 35.5438 36.3536L17.6462 37.3909C16.6112 37.448 16.1508 37.103 16.1508 36.18V36.1823ZM33.8177 19.9296C33.9331 20.4483 33.8177 20.9669 33.299 21.0263L32.4365 21.1977V33.8747C31.6883 34.2768 30.9983 34.5075 30.4225 34.5075C29.5018 34.5075 29.271 34.2185 28.581 33.3549L22.9399 24.4809V33.067L24.7243 33.4714C24.7243 33.4714 24.7243 34.5087 23.2849 34.5087L19.3163 34.7383C19.2009 34.5075 19.3163 33.9318 19.7184 33.8164L20.7546 33.5296V22.1767L19.3163 22.0602C19.2009 21.5415 19.4877 20.7921 20.2942 20.7339L24.553 20.4471L30.4225 29.4376V21.4833L28.926 21.3119C28.8106 20.6767 29.271 20.2152 29.8456 20.1581L33.8177 19.9273V19.9296Z" fill="#56653E" style="fill:#56653E;fill:color(display-p3 0.3371 0.3942 0.2420);fill-opacity:1;"/>
<defs>
<linearGradient id="paint0_linear_1643_6642" x1="24" y1="0" x2="24" y2="48" gradientUnits="userSpaceOnUse">
<stop stop-color="#E7F2D4" style="stop-color:#E7F2D4;stop-color:color(display-p3 0.9041 0.9482 0.8327);stop-opacity:1;"/>
<stop offset="1" stop-color="#E7F2D4" style="stop-color:#E7F2D4;stop-color:color(display-p3 0.9041 0.9482 0.8327);stop-opacity:1;"/>
</linearGradient>
</defs>
</svg>
