<svg width="49" height="49" viewBox="0 0 49 49" fill="none" xmlns="http://www.w3.org/2000/svg">
<rect x="0.500132" y="0.5" width="47.0473" height="47.0473" rx="11.5" transform="matrix(1 0 0.000264314 1 -0.000132157 2.98023e-08)" fill="url(#paint0_linear_1643_6640)"/>
<rect x="0.500132" y="0.5" width="47.0473" height="47.0473" rx="11.5" transform="matrix(1 0 0.000264314 1 -0.000132157 2.98023e-08)" stroke="#F5F4F5" style="stroke:#F5F4F5;stroke:color(display-p3 0.9600 0.9575 0.9625);stroke-opacity:1;"/>
<g clip-path="url(#clip0_1643_6640)">
<path d="M30.4018 26.8804C30.4018 25.2189 29.041 23.8671 27.3684 23.8671C25.6957 23.8671 24.3356 25.2189 24.3356 26.8804C24.3356 28.5419 25.6959 29.8935 27.3685 29.8935C29.0411 29.8935 30.4018 28.5417 30.4018 26.8804ZM31.2562 26.8804C31.2562 29.0099 29.5124 30.7423 27.3685 30.7423C25.225 30.7423 23.4811 29.0099 23.4811 26.8804C23.4811 24.7507 25.225 23.0185 27.3685 23.0185C29.5122 23.0185 31.2562 24.7507 31.2562 26.8804ZM34.8432 32.7012L31.8646 30.036C31.6239 30.3721 31.3463 30.6801 31.037 30.9544L34.0114 33.6192C34.265 33.8467 34.6599 33.8254 34.8893 33.5733C35.1174 33.3213 35.097 32.9295 34.8432 32.7012ZM27.3685 31.5061C29.9364 31.5061 32.0256 29.4309 32.0256 26.8803C32.0256 24.3293 29.9364 22.2545 27.3685 22.2545C24.8008 22.2545 22.7117 24.3293 22.7117 26.8804C22.7117 29.4309 24.8008 31.5062 27.3685 31.5062M35.5241 34.1415C35.3849 34.2942 35.2154 34.4161 35.0263 34.4994C34.8372 34.5827 34.6328 34.6254 34.4261 34.6249C34.0624 34.6256 33.7111 34.492 33.4398 34.2498L30.3471 31.4793C29.487 32.0311 28.4665 32.3549 27.3685 32.3549C24.3296 32.3549 21.8573 29.8989 21.8573 26.8804C21.8573 23.8616 24.3296 21.4059 27.3685 21.4059C30.4078 21.4059 32.8801 23.8616 32.8801 26.8804C32.8801 27.7465 32.6712 28.5631 32.309 29.2917L35.4152 32.071C36.0184 32.6128 36.0672 33.5411 35.5241 34.1415ZM16.0457 19.4918C16.0457 19.7125 16.0594 19.9323 16.0855 20.1449C16.0988 20.2532 16.0698 20.3624 16.0047 20.4499C15.9395 20.5374 15.8431 20.5964 15.7356 20.6147C14.685 20.8843 12.9561 21.6998 12.9561 24.1468C12.9561 25.9947 13.9818 27.0144 14.8427 27.545C15.1366 27.7291 15.4843 27.8271 15.8513 27.8309L21.0032 27.8356L21.0024 28.6844L15.8466 28.6797C15.3172 28.6742 14.8149 28.5307 14.3897 28.2647C13.5366 27.7388 12.1016 26.5031 12.1016 24.1468C12.1016 21.3065 14.0566 20.2565 15.2041 19.8856C15.1956 19.7545 15.1913 19.6231 15.1913 19.4918C15.1913 17.1713 16.7758 14.7646 18.8769 13.8941C21.3343 12.8715 23.9378 13.3785 25.8402 15.2496C26.4299 15.8293 26.9147 16.5334 27.2868 17.3478C27.7867 16.9366 28.4027 16.7095 29.0522 16.7095C30.3282 16.7095 31.7646 17.6716 32.0205 19.7757C33.2154 20.0493 35.7403 21.006 35.7403 24.1795C35.7403 25.4468 35.3406 26.4932 34.5514 27.2902L33.9422 26.6948C34.5685 26.0627 34.8859 25.2164 34.8859 24.1795C34.8859 21.4037 32.5465 20.7131 31.5399 20.5455C31.4834 20.5362 31.4294 20.5156 31.3811 20.4849C31.3327 20.4542 31.2911 20.414 31.2587 20.3669C31.1954 20.2756 31.1706 20.1631 31.1899 20.0537C31.0503 18.3307 30.0198 17.5583 29.0522 17.5583C28.4416 17.5583 27.8692 17.8537 27.4812 18.3688C27.4349 18.4303 27.3728 18.4782 27.3015 18.5073C27.2302 18.5364 27.1523 18.5458 27.0762 18.5343C27.0002 18.5231 26.9287 18.4916 26.8691 18.4431C26.8095 18.3947 26.764 18.3311 26.7375 18.259C26.3875 17.2961 25.8835 16.4862 25.2391 15.8531C23.5905 14.2315 21.336 13.7918 19.2064 14.6776C17.4337 15.4118 16.0457 17.526 16.0457 19.4918Z" fill="#56653E" style="fill:#56653E;fill:color(display-p3 0.3371 0.3942 0.2420);fill-opacity:1;"/>
</g>
<defs>
<linearGradient id="paint0_linear_1643_6640" x1="24.0236" y1="0" x2="24.0236" y2="48.0473" gradientUnits="userSpaceOnUse">
<stop stop-color="#E7F2D4" style="stop-color:#E7F2D4;stop-color:color(display-p3 0.9041 0.9482 0.8327);stop-opacity:1;"/>
<stop offset="1" stop-color="#E7F2D4" style="stop-color:#E7F2D4;stop-color:color(display-p3 0.9041 0.9482 0.8327);stop-opacity:1;"/>
</linearGradient>
<clipPath id="clip0_1643_6640">
<rect x="7" y="7" width="34" height="34" rx="4.68187" fill="white" style="fill:white;fill-opacity:1;"/>
</clipPath>
</defs>
</svg>
