<svg width="48" height="48" viewBox="0 0 48 48" fill="none" xmlns="http://www.w3.org/2000/svg">
<rect x="0.5" y="0.5" width="47" height="47" rx="11.5" fill="url(#paint0_linear_1643_6645)"/>
<rect x="0.5" y="0.5" width="47" height="47" rx="11.5" stroke="#F5F4F5" style="stroke:#F5F4F5;stroke:color(display-p3 0.9600 0.9575 0.9625);stroke-opacity:1;"/>
<path d="M19.3824 29.1675C18.7982 28.7728 18.3936 28.1964 18.1728 27.4343L19.529 26.8754C19.6521 27.3444 19.867 27.7078 20.1738 27.9658C20.4787 28.2238 20.85 28.3507 21.2838 28.3507C21.7274 28.3507 22.1084 28.2159 22.4268 27.9462C22.7453 27.6765 22.9056 27.3326 22.9056 26.9164C22.9056 26.4905 22.7375 26.1426 22.4015 25.873C22.0654 25.6035 21.6433 25.4685 21.1391 25.4685H20.3556V24.1261H21.0589C21.4927 24.1261 21.8582 24.0089 22.1552 23.7744C22.4522 23.5399 22.6008 23.2194 22.6008 22.811C22.6008 22.4476 22.4678 22.1583 22.2022 21.9415C21.9365 21.7247 21.6002 21.6152 21.1918 21.6152C20.7932 21.6152 20.4766 21.7208 20.2421 21.9338C20.0076 22.1468 19.8376 22.4086 19.7302 22.7173L18.3878 22.1585C18.5656 21.6543 18.892 21.2088 19.3707 20.8238C19.8495 20.4389 20.461 20.2454 21.2036 20.2454C21.7526 20.2454 22.247 20.351 22.6848 20.5639C23.1225 20.7769 23.4664 21.072 23.7146 21.4471C23.9627 21.8242 24.0858 22.2464 24.0858 22.7153C24.0858 23.194 23.9706 23.5984 23.74 23.9307C23.5093 24.2629 23.226 24.5168 22.8899 24.6947V24.7748C23.3335 24.9604 23.695 25.2438 23.9803 25.6248C24.2636 26.0059 24.4062 26.4613 24.4062 26.9928C24.4062 27.5243 24.2713 27.9991 24.0016 28.4153C23.7319 28.8316 23.3587 29.1598 22.8859 29.3982C22.4111 29.6365 21.8777 29.7577 21.2856 29.7577C20.5997 29.7596 19.9666 29.5623 19.3824 29.1675Z" fill="#56653E" style="fill:#56653E;fill:color(display-p3 0.3371 0.3942 0.2420);fill-opacity:1;"/>
<path d="M27.7048 22.4378L26.2236 23.5145L25.4791 22.385L28.1504 20.4583H29.1743V29.5466H27.7048V22.4378Z" fill="#56653E" style="fill:#56653E;fill:color(display-p3 0.3371 0.3942 0.2420);fill-opacity:1;"/>
<path d="M31.8076 39.7079L38.8422 32.6733L35.3249 31.1101L31.8077 32.673L30.2444 36.1906L31.8076 39.7079Z" fill="#9AB175" style="fill:#9AB175;fill:color(display-p3 0.6050 0.6952 0.4575);fill-opacity:1;"/>
<path d="M14.6123 36.1906L16.1756 39.7079L31.8076 39.7079L31.8077 32.673H16.175L14.6123 36.1906Z" fill="#56653E" style="fill:#56653E;fill:color(display-p3 0.3371 0.3942 0.2420);fill-opacity:1;"/>
<path d="M11.4854 10.0059C10.19 10.0059 9.14062 11.0552 9.14062 12.3507V32.673L12.6579 34.2362L16.175 32.673L16.1752 17.0403H31.8077L33.371 13.5232L31.8079 10.0059H11.4854Z" fill="#9AB175" style="fill:#9AB175;fill:color(display-p3 0.6050 0.6952 0.4575);fill-opacity:1;"/>
<path d="M9.14062 32.673V37.3631C9.14062 38.6587 10.19 39.7079 11.4854 39.7079H16.1756L16.175 32.673L9.14062 32.673Z" fill="#56653E" style="fill:#56653E;fill:color(display-p3 0.3371 0.3942 0.2420);fill-opacity:1;"/>
<path d="M31.8077 17.0403V32.673L38.8422 32.6733L38.8421 17.0403L35.3249 15.4771L31.8077 17.0403Z" fill="#56653E" style="fill:#56653E;fill:color(display-p3 0.3371 0.3942 0.2420);fill-opacity:1;"/>
<path d="M38.8421 17.0403V12.3507C38.8421 11.0551 37.7928 10.0059 36.4973 10.0059H31.8079L31.8077 17.0403L38.8421 17.0403Z" fill="#56653E" style="fill:#56653E;fill:color(display-p3 0.3371 0.3942 0.2420);fill-opacity:1;"/>
<defs>
<linearGradient id="paint0_linear_1643_6645" x1="24" y1="0" x2="24" y2="48" gradientUnits="userSpaceOnUse">
<stop stop-color="#E7F2D4" style="stop-color:#E7F2D4;stop-color:color(display-p3 0.9041 0.9482 0.8327);stop-opacity:1;"/>
<stop offset="1" stop-color="#E7F2D4" style="stop-color:#E7F2D4;stop-color:color(display-p3 0.9041 0.9482 0.8327);stop-opacity:1;"/>
</linearGradient>
</defs>
</svg>
