<svg width="49" height="49" viewBox="0 0 49 49" fill="none" xmlns="http://www.w3.org/2000/svg">
<rect x="0.500132" y="0.5" width="47.0473" height="47.0473" rx="11.5" transform="matrix(1 0 0.000264314 1 -0.000132157 2.98023e-08)" fill="url(#paint0_linear_1643_6638)"/>
<rect x="0.500132" y="0.5" width="47.0473" height="47.0473" rx="11.5" transform="matrix(1 0 0.000264314 1 -0.000132157 2.98023e-08)" stroke="#F5F4F5" style="stroke:#F5F4F5;stroke:color(display-p3 0.9600 0.9575 0.9625);stroke-opacity:1;"/>
<g clip-path="url(#clip0_1643_6638)">
<path d="M9.92969 24.0235C9.92969 25.322 10.112 26.5757 10.4219 27.7772H28.6982C30.7711 27.7772 32.4518 26.0964 32.4518 24.0235C32.4518 21.9505 30.7711 20.2698 28.6982 20.2698H10.4219C10.0994 21.4951 9.93397 22.7564 9.92969 24.0235Z" fill="#56653E" style="fill:#56653E;fill:color(display-p3 0.3371 0.3942 0.2420);fill-opacity:1;"/>
<path d="M35.1962 16.199C35.7211 15.7159 36.2094 15.1946 36.6571 14.6393C33.9043 11.2092 29.6839 9.00879 24.9451 9.00879C19.0131 9.00879 13.9086 12.4598 11.4727 17.4546H31.9927C33.1802 17.4539 34.3239 17.0055 35.1955 16.199" fill="#56653E" style="fill:#56653E;fill:color(display-p3 0.3371 0.3942 0.2420);fill-opacity:1;"/>
<path d="M31.992 30.5925H11.4727C13.9088 35.5873 19.0124 39.0383 24.9444 39.0383C29.6835 39.0383 33.9036 36.837 36.6564 33.4078C36.209 32.8522 35.7207 32.3309 35.1955 31.8481C34.3236 31.0416 33.1797 30.5933 31.992 30.5925Z" fill="#56653E" style="fill:#56653E;fill:color(display-p3 0.3371 0.3942 0.2420);fill-opacity:1;"/>
</g>
<defs>
<linearGradient id="paint0_linear_1643_6638" x1="24.0236" y1="0" x2="24.0236" y2="48.0473" gradientUnits="userSpaceOnUse">
<stop stop-color="#E7F2D4" style="stop-color:#E7F2D4;stop-color:color(display-p3 0.9041 0.9482 0.8327);stop-opacity:1;"/>
<stop offset="1" stop-color="#E7F2D4" style="stop-color:#E7F2D4;stop-color:color(display-p3 0.9041 0.9482 0.8327);stop-opacity:1;"/>
</linearGradient>
<clipPath id="clip0_1643_6638">
<rect width="30.0295" height="30.0296" fill="white" style="fill:white;fill-opacity:1;" transform="translate(8.99219 9.00879)"/>
</clipPath>
</defs>
</svg>
