<svg width="49" height="48" viewBox="0 0 49 48" fill="none" xmlns="http://www.w3.org/2000/svg">
<rect x="0.500132" y="0.5" width="47" height="47" rx="11.5" transform="matrix(1 0 0.000264314 1 -0.000132157 2.98023e-08)" fill="url(#paint0_linear_1643_6635)"/>
<rect x="0.500132" y="0.5" width="47" height="47" rx="11.5" transform="matrix(1 0 0.000264314 1 -0.000132157 2.98023e-08)" stroke="#F5F4F5" style="stroke:#F5F4F5;stroke:color(display-p3 0.9600 0.9575 0.9625);stroke-opacity:1;"/>
<path d="M15.9285 27.8443C15.9283 29.4777 14.5971 30.812 12.9647 30.8122C11.3323 30.8124 9.99983 29.4784 10 27.8449C10.0002 26.2115 11.3334 24.8771 12.9655 24.877L15.929 24.8767L15.9285 27.8443ZM17.4223 27.8441C17.4225 26.2107 18.7557 24.8764 20.3879 24.8762C22.02 24.876 23.353 26.2098 23.3528 27.8435L23.352 35.272C23.3518 36.9055 22.0188 38.2398 20.3865 38.24C18.7543 38.2401 17.4214 36.9061 17.4215 35.2726L17.4223 27.8441Z" fill="#56653E" style="fill:#56653E;fill:color(display-p3 0.3371 0.3942 0.2420);fill-opacity:1;"/>
<path d="M20.3984 15.9336C18.7662 15.9337 17.4333 14.6017 17.4335 12.968C17.4336 11.3344 18.7669 10.0005 20.399 10.0003C22.0311 10.0002 23.3641 11.3342 23.3639 12.9676L23.3636 15.9335L20.3984 15.9336ZM20.3982 17.4286C22.0304 17.4285 23.3633 18.7625 23.3631 20.3959C23.363 22.0294 22.03 23.3637 20.3976 23.3639L12.9751 23.3647C11.3429 23.3648 10.0102 22.031 10.0104 20.3974C10.0105 18.7639 11.3438 17.4296 12.9759 17.4294L20.3982 17.4286Z" fill="#56653E" style="fill:#56653E;fill:color(display-p3 0.3371 0.3942 0.2420);fill-opacity:1;"/>
<path d="M32.2924 20.3955C32.2926 18.762 33.6238 17.4277 35.2562 17.4275C36.8886 17.4273 38.2213 18.7614 38.2211 20.3948C38.2209 22.0283 36.8877 23.3626 35.2556 23.3628L32.2921 23.3631L32.2924 20.3955ZM30.7986 20.3956C30.7984 22.0291 29.4652 23.3634 27.833 23.3635C26.2009 23.3637 24.8679 22.0299 24.8681 20.3962L24.8689 12.9677C24.8691 11.3343 26.2021 10.0002 27.8344 10C29.4666 9.99983 30.7995 11.3339 30.7994 12.9673L30.7986 20.3956Z" fill="#56653E" style="fill:#56653E;fill:color(display-p3 0.3371 0.3942 0.2420);fill-opacity:1;"/>
<path d="M27.8303 32.3037C29.4624 32.3035 30.7954 33.6355 30.7952 35.2692C30.7951 36.9029 29.4618 38.2369 27.8297 38.2371C26.1976 38.2373 24.8646 36.9033 24.8648 35.2698L24.8651 32.304L27.8303 32.3037ZM27.8305 30.8086C26.1983 30.8088 24.8654 29.4747 24.8656 27.8413C24.8657 26.2078 26.1987 24.8735 27.8311 24.8733L35.2536 24.8726C36.8858 24.8724 38.2187 26.2062 38.2186 27.8399C38.2184 29.4733 36.8851 30.8076 35.253 30.8078L27.8305 30.8086Z" fill="#56653E" style="fill:#56653E;fill:color(display-p3 0.3371 0.3942 0.2420);fill-opacity:1;"/>
<defs>
<linearGradient id="paint0_linear_1643_6635" x1="24" y1="0" x2="24" y2="48" gradientUnits="userSpaceOnUse">
<stop stop-color="#E7F2D4" style="stop-color:#E7F2D4;stop-color:color(display-p3 0.9041 0.9482 0.8327);stop-opacity:1;"/>
<stop offset="1" stop-color="#E7F2D4" style="stop-color:#E7F2D4;stop-color:color(display-p3 0.9041 0.9482 0.8327);stop-opacity:1;"/>
</linearGradient>
</defs>
</svg>
