<svg width="49" height="48" viewBox="0 0 49 48" fill="none" xmlns="http://www.w3.org/2000/svg">
<rect x="0.500132" y="0.5" width="47" height="47" rx="11.5" transform="matrix(1 0 0.000264314 1 -0.000132157 2.98023e-08)" fill="url(#paint0_linear_1643_6637)"/>
<rect x="0.500132" y="0.5" width="47" height="47" rx="11.5" transform="matrix(1 0 0.000264314 1 -0.000132157 2.98023e-08)" stroke="#F5F4F5" style="stroke:#F5F4F5;stroke:color(display-p3 0.9600 0.9575 0.9625);stroke-opacity:1;"/>
<path d="M36.5682 21.2924L36.5317 21.1954L32.9927 11.6049C32.9207 11.4169 32.7932 11.2575 32.6285 11.1494C32.4637 11.0432 32.2715 10.992 32.0778 11.0028C31.8842 11.0136 31.6983 11.0859 31.5455 11.2099C31.3943 11.3374 31.2846 11.5102 31.2314 11.7047L28.8418 19.2961H19.1659L16.7764 11.7047C16.7246 11.5091 16.6147 11.3354 16.4623 11.2084C16.3094 11.0845 16.1236 11.0122 15.9299 11.0014C15.7362 10.9906 15.544 11.0418 15.3792 11.148C15.2149 11.2565 15.0875 11.4158 15.0151 11.6035L11.4693 21.1898L11.4341 21.2868C10.9247 22.669 10.8618 24.1857 11.255 25.6083C11.6481 27.0308 12.476 28.2821 13.6138 29.1734L13.626 29.1833L13.6585 29.2072L19.0495 33.3993L21.7166 35.4954L23.3412 36.7691C23.5312 36.9189 23.7633 37 24.0019 37C24.2405 37 24.4725 36.9189 24.6625 36.7691L26.2871 35.4954L28.9542 33.3993L34.3777 29.1819L34.3912 29.1706C35.5265 28.2791 36.3524 27.0291 36.745 25.6085C37.1376 24.1879 37.0755 22.6733 36.5682 21.2924Z" fill="#56653E" style="fill:#56653E;fill:color(display-p3 0.3371 0.3942 0.2420);fill-opacity:1;"/>
<defs>
<linearGradient id="paint0_linear_1643_6637" x1="24" y1="0" x2="24" y2="48" gradientUnits="userSpaceOnUse">
<stop stop-color="#E7F2D4" style="stop-color:#E7F2D4;stop-color:color(display-p3 0.9041 0.9482 0.8327);stop-opacity:1;"/>
<stop offset="1" stop-color="#E7F2D4" style="stop-color:#E7F2D4;stop-color:color(display-p3 0.9041 0.9482 0.8327);stop-opacity:1;"/>
</linearGradient>
</defs>
</svg>
